<?xml version="1.0" encoding="UTF-8" standalone="no"?>
<!-- Created with Inkscape (http://www.inkscape.org/) -->

<svg
   version="1.1"
   id="svg2"
   width="566.92932"
   height="566.92932"
   viewBox="0 0 566.92932 566.92932"
   sodipodi:docname="owl_logo.ai"
   xmlns:inkscape="http://www.inkscape.org/namespaces/inkscape"
   xmlns:sodipodi="http://sodipodi.sourceforge.net/DTD/sodipodi-0.dtd"
   xmlns="http://www.w3.org/2000/svg"
   xmlns:svg="http://www.w3.org/2000/svg">
  <defs
     id="defs6">
    <clipPath
       clipPathUnits="userSpaceOnUse"
       id="clipPath32">
      <path
         d="M 0,425.197 H 425.197 V 0 H 0 Z"
         id="path30" />
    </clipPath>
    <clipPath
       clipPathUnits="userSpaceOnUse"
       id="clipPath142">
      <path
         d="M 0,425.197 H 425.197 V 0 H 0 Z"
         id="path140" />
    </clipPath>
    <clipPath
       clipPathUnits="userSpaceOnUse"
       id="clipPath230">
      <path
         d="M 0,425.197 H 425.197 V 0 H 0 Z"
         id="path228" />
    </clipPath>
    <clipPath
       clipPathUnits="userSpaceOnUse"
       id="clipPath334">
      <path
         d="M 0,425.197 H 425.197 V 0 H 0 Z"
         id="path332" />
    </clipPath>
  </defs>
  <sodipodi:namedview
     id="namedview4"
     pagecolor="#ffffff"
     bordercolor="#000000"
     borderopacity="0.25"
     inkscape:showpageshadow="2"
     inkscape:pageopacity="0.0"
     inkscape:pagecheckerboard="0"
     inkscape:deskcolor="#d1d1d1" />
  <g
     id="g8"
     inkscape:groupmode="layer"
     inkscape:label="owl_logo"
     transform="matrix(1.3333333,0,0,-1.3333333,0,566.92933)">
    <g
       id="g10"
       transform="translate(207.0456,286.6471)">
      <path
         d="M 0,0 -55.089,33.457 -58.755,27.418 -3.67,-6.039 Z"
         style="fill:#43b255;fill-opacity:1;fill-rule:nonzero;stroke:none"
         id="path12" />
    </g>
    <g
       id="g14"
       transform="translate(201.6749,276.2646)">
      <path
         d="M 0,0 -56.847,30.798 -60.196,24.574 -3.348,-6.223 Z"
         style="fill:#43b255;fill-opacity:1;fill-rule:nonzero;stroke:none"
         id="path16" />
    </g>
    <g
       id="g18"
       transform="translate(217.9098,280.5089)">
      <path
         d="M 0,0 55.084,33.455 51.414,39.494 -3.67,6.039 Z"
         style="fill:#43b255;fill-opacity:1;fill-rule:nonzero;stroke:none"
         id="path20" />
    </g>
    <g
       id="g22"
       transform="translate(223.0741,270.0414)">
      <path
         d="M 0,0 56.805,30.699 53.456,36.922 -3.348,6.223 Z"
         style="fill:#43b255;fill-opacity:1;fill-rule:nonzero;stroke:none"
         id="path24" />
    </g>
    <g
       id="g26">
      <g
         id="g28"
         clip-path="url(#clipPath32)">
        <g
           id="g34"
           transform="translate(252.9492,190.4013)">
          <path
             d="m 0,0 c -4.282,-6.081 -10.464,-10.827 -18.909,-14.512 -4.144,-1.807 -6.821,-5.919 -6.821,-10.48 v -3.856 h -31.615 v 3.849 c 0,4.565 -2.682,8.682 -6.835,10.487 -5.708,2.48 -11.89,5.665 -19.187,14.779 -7.056,8.813 -10.961,24.591 -11,24.75 l -6.865,-1.67 c 0.173,-0.706 4.305,-17.448 12.35,-27.496 8.305,-10.374 15.652,-14.134 21.885,-16.843 1.573,-0.683 2.587,-2.256 2.587,-4.007 v -4.369 c 0,-3.609 2.937,-6.545 6.545,-6.545 h 32.655 c 3.61,0 6.545,2.936 6.545,6.545 v 4.376 c 0,1.748 1.012,3.321 2.58,4.004 9.664,4.218 16.816,9.754 21.862,16.922 7.861,11.175 12.17,26.659 12.354,27.312 L 11.32,25.12 C 10.939,22.32 7.143,10.151 0,0"
             style="fill:#43b255;fill-opacity:1;fill-rule:nonzero;stroke:none"
             id="path36" />
        </g>
        <g
           id="g38"
           transform="translate(264.2687,215.5218)">
          <path
             d="M 0,0 C 0,0 6.237,3.274 8.945,6.699 L 6.812,-1.874 Z"
             style="fill:#43b255;fill-opacity:1;fill-rule:nonzero;stroke:none"
             id="path40" />
        </g>
        <g
           id="g42"
           transform="translate(158.5824,215.4183)">
          <path
             d="m 0,0 c 0,0 -6.279,3.432 -8.988,6.858 l 2.133,-8.574 z"
             style="fill:#43b255;fill-opacity:1;fill-rule:nonzero;stroke:none"
             id="path44" />
        </g>
        <g
           id="g46"
           transform="translate(271.8874,281.0816)">
          <path
             d="M 0,0 0.035,0.023 C -1.52,2.392 -4.277,5.227 -4.728,5.694 l -6.455,-3.668 c 1.291,-1.332 3.392,-3.625 4.581,-5.147 5.014,-6.301 8.296,-14.674 8.154,-22.762 -0.296,-16.803 -13.244,-31.385 -29.924,-33.427 -11.259,-1.378 -21.932,2.561 -29.52,10.718 l -2.585,2.783 -2.585,-2.783 c -7.589,-8.159 -18.267,-12.097 -29.528,-10.717 -16.678,2.044 -29.62,16.626 -29.916,33.426 -0.141,8.026 3.162,16.334 8.113,22.617 1.226,1.483 3.003,3.405 4.128,4.565 l -6.609,3.503 c -0.453,-0.469 -3.052,-3.135 -4.611,-5.503 l 0.012,-0.008 c -5.216,-7.077 -8.103,-15.713 -8.103,-24.54 0,-22.826 18.569,-41.396 41.394,-41.396 3.074,0 6.116,0.364 9.078,1.046 2.127,0.491 4.36,0.438 6.339,-0.484 3.146,-1.467 7.489,-4.333 10.505,-9.708 0.792,-1.411 2.788,-1.513 3.586,-0.105 1.743,3.075 4.96,7.225 10.39,9.746 2.022,0.939 4.323,1.032 6.498,0.535 2.941,-0.672 5.961,-1.03 9.012,-1.03 22.828,0 41.396,18.57 41.396,41.396 C 8.622,-16.13 5.552,-7.206 0,0"
             style="fill:#07803c;fill-opacity:1;fill-rule:nonzero;stroke:none"
             id="path48" />
        </g>
        <g
           id="g50"
           transform="translate(192.5268,258.6427)">
          <path
             d="m 0,0 c 2.821,0 5.107,-2.287 5.107,-5.107 0,-2.821 -2.286,-5.107 -5.107,-5.107 -2.82,0 -5.107,2.286 -5.107,5.107 C -5.107,-2.287 -2.82,0 0,0 m -3.649,-20.875 c 7.773,0 14.097,6.324 14.097,14.1 0,7.773 -6.324,14.098 -14.097,14.098 -7.776,0 -14.1,-6.325 -14.1,-14.098 0,-7.776 6.324,-14.1 14.1,-14.1"
             style="fill:#07803c;fill-opacity:1;fill-rule:nonzero;stroke:none"
             id="path52" />
        </g>
        <g
           id="g54"
           transform="translate(229.6249,258.6427)">
          <path
             d="m 0,0 c 2.82,0 5.107,-2.287 5.107,-5.107 0,-2.821 -2.287,-5.107 -5.107,-5.107 -2.821,0 -5.107,2.286 -5.107,5.107 C -5.107,-2.287 -2.821,0 0,0 m 3.452,-20.875 c 7.776,0 14.1,6.324 14.1,14.1 0,7.773 -6.324,14.098 -14.1,14.098 -7.773,0 -14.097,-6.325 -14.097,-14.098 0,-7.776 6.324,-14.1 14.097,-14.1"
             style="fill:#07803c;fill-opacity:1;fill-rule:nonzero;stroke:none"
             id="path56" />
        </g>
        <g
           id="g58"
           transform="translate(173.0177,107.5643)">
          <path
             d="m 0,0 v -1.415 h 0.928 c 0.174,0 0.316,0.021 0.426,0.066 0.111,0.044 0.197,0.101 0.26,0.171 0.062,0.071 0.105,0.15 0.128,0.239 0.024,0.087 0.035,0.177 0.035,0.268 0,0.104 -0.013,0.197 -0.041,0.28 C 1.709,-0.307 1.663,-0.237 1.596,-0.18 1.53,-0.123 1.442,-0.078 1.333,-0.047 1.224,-0.016 1.086,0 0.92,0 Z m 0,0.881 h 0.686 c 0.146,0 0.277,0.01 0.394,0.031 0.117,0.021 0.216,0.057 0.298,0.109 0.081,0.051 0.144,0.124 0.187,0.214 0.043,0.091 0.064,0.205 0.064,0.343 0,0.135 -0.017,0.247 -0.05,0.337 C 1.545,2.005 1.493,2.077 1.423,2.132 1.353,2.187 1.264,2.226 1.156,2.249 1.048,2.271 0.92,2.283 0.772,2.283 H 0 Z m -1.317,-3.29 V 3.27 H 0.772 C 1.164,3.27 1.498,3.233 1.773,3.16 2.049,3.088 2.273,2.985 2.448,2.853 2.622,2.72 2.749,2.559 2.828,2.369 2.907,2.18 2.947,1.968 2.947,1.734 2.947,1.606 2.928,1.484 2.892,1.366 2.855,1.247 2.798,1.137 2.721,1.032 2.643,0.929 2.542,0.834 2.42,0.75 2.298,0.665 2.151,0.592 1.98,0.529 2.354,0.438 2.631,0.291 2.81,0.087 2.99,-0.117 3.079,-0.379 3.079,-0.698 3.079,-0.939 3.032,-1.164 2.939,-1.372 2.845,-1.58 2.708,-1.762 2.528,-1.916 2.347,-2.07 2.124,-2.191 1.859,-2.278 1.594,-2.365 1.292,-2.409 0.951,-2.409 Z"
             style="fill:#231916;fill-opacity:1;fill-rule:nonzero;stroke:none"
             id="path60" />
        </g>
        <g
           id="g62"
           transform="translate(183.4088,107.9969)">
          <path
             d="M 0,0 C 0,0.28 -0.037,0.533 -0.109,0.758 -0.182,0.982 -0.287,1.173 -0.423,1.329 -0.56,1.484 -0.727,1.604 -0.924,1.687 -1.122,1.771 -1.346,1.812 -1.598,1.812 -1.853,1.812 -2.08,1.771 -2.278,1.687 -2.477,1.604 -2.645,1.484 -2.781,1.329 -2.917,1.173 -3.022,0.982 -3.095,0.758 -3.167,0.533 -3.204,0.28 -3.204,0 c 0,-0.283 0.037,-0.538 0.109,-0.763 0.073,-0.224 0.178,-0.415 0.314,-0.57 0.136,-0.156 0.304,-0.275 0.503,-0.357 0.198,-0.081 0.425,-0.122 0.68,-0.122 0.252,0 0.476,0.041 0.674,0.122 0.197,0.082 0.364,0.201 0.501,0.357 0.136,0.155 0.241,0.346 0.314,0.57 C -0.037,-0.538 0,-0.283 0,0 M 1.349,0 C 1.349,-0.411 1.278,-0.793 1.136,-1.146 0.995,-1.5 0.795,-1.807 0.538,-2.068 0.281,-2.329 -0.029,-2.534 -0.392,-2.682 -0.754,-2.83 -1.156,-2.904 -1.598,-2.904 c -0.442,0 -0.845,0.074 -1.209,0.222 -0.363,0.148 -0.674,0.353 -0.933,0.614 -0.259,0.261 -0.459,0.568 -0.6,0.922 -0.142,0.353 -0.213,0.735 -0.213,1.146 0,0.41 0.071,0.792 0.213,1.146 0.141,0.353 0.341,0.66 0.6,0.919 0.259,0.26 0.57,0.464 0.933,0.613 0.364,0.147 0.767,0.221 1.209,0.221 0.442,0 0.844,-0.074 1.206,-0.223 C -0.029,2.526 0.281,2.321 0.538,2.062 0.795,1.802 0.995,1.495 1.136,1.142 1.278,0.788 1.349,0.407 1.349,0"
             style="fill:#231916;fill-opacity:1;fill-rule:nonzero;stroke:none"
             id="path64" />
        </g>
        <g
           id="g66"
           transform="translate(189.045,107.5643)">
          <path
             d="m 0,0 v -1.415 h 0.928 c 0.174,0 0.316,0.021 0.426,0.066 0.111,0.044 0.197,0.101 0.26,0.171 0.062,0.071 0.105,0.15 0.128,0.239 0.024,0.087 0.035,0.177 0.035,0.268 0,0.104 -0.013,0.197 -0.041,0.28 C 1.709,-0.307 1.663,-0.237 1.596,-0.18 1.53,-0.123 1.442,-0.078 1.333,-0.047 1.224,-0.016 1.086,0 0.92,0 Z m 0,0.881 h 0.686 c 0.146,0 0.277,0.01 0.394,0.031 0.117,0.021 0.216,0.057 0.298,0.109 0.081,0.051 0.144,0.124 0.187,0.214 0.043,0.091 0.064,0.205 0.064,0.343 0,0.135 -0.017,0.247 -0.05,0.337 C 1.545,2.005 1.493,2.077 1.423,2.132 1.353,2.187 1.264,2.226 1.156,2.249 1.048,2.271 0.92,2.283 0.772,2.283 H 0 Z m -1.317,-3.29 V 3.27 H 0.772 C 1.164,3.27 1.498,3.233 1.773,3.16 2.049,3.088 2.273,2.985 2.448,2.853 2.622,2.72 2.749,2.559 2.828,2.369 2.907,2.18 2.947,1.968 2.947,1.734 2.947,1.606 2.928,1.484 2.892,1.366 2.855,1.247 2.798,1.137 2.721,1.032 2.643,0.929 2.542,0.834 2.42,0.75 2.298,0.665 2.151,0.592 1.98,0.529 2.354,0.438 2.631,0.291 2.81,0.087 2.99,-0.117 3.079,-0.379 3.079,-0.698 3.079,-0.939 3.032,-1.164 2.939,-1.372 2.845,-1.58 2.708,-1.762 2.528,-1.916 2.347,-2.07 2.124,-2.191 1.859,-2.278 1.594,-2.365 1.292,-2.409 0.951,-2.409 Z"
             style="fill:#231916;fill-opacity:1;fill-rule:nonzero;stroke:none"
             id="path68" />
        </g>
        <g
           id="g70"
           transform="translate(196.817,107.326)">
          <path
             d="M 0,0 H 1.551 L 1.029,1.556 C 0.995,1.654 0.956,1.771 0.91,1.904 0.864,2.038 0.819,2.183 0.775,2.339 0.734,2.181 0.691,2.033 0.647,1.898 0.603,1.763 0.561,1.646 0.522,1.548 Z M 3.648,-2.171 H 2.627 c -0.114,0 -0.209,0.026 -0.283,0.08 C 2.27,-2.038 2.219,-1.97 2.19,-1.887 L 1.855,-0.896 H -0.304 L -0.64,-1.887 C -0.666,-1.959 -0.716,-2.024 -0.792,-2.083 -0.867,-2.142 -0.959,-2.171 -1.068,-2.171 H -2.097 L 0.101,3.508 H 1.45 Z"
             style="fill:#231916;fill-opacity:1;fill-rule:nonzero;stroke:none"
             id="path72" />
        </g>
        <g
           id="g74"
           transform="translate(208.506,108.0741)">
          <path
             d="m 0,0 -1.758,2.76 h 1.318 c 0.085,0 0.148,-0.011 0.189,-0.033 0.04,-0.022 0.075,-0.059 0.106,-0.111 L 0.986,0.702 C 0.999,0.735 1.014,0.769 1.031,0.8 1.048,0.831 1.066,0.863 1.087,0.896 l 0.99,1.701 C 2.142,2.705 2.23,2.76 2.342,2.76 H 3.605 L 1.824,0.059 3.644,-2.919 H 2.327 c -0.086,0 -0.156,0.021 -0.209,0.063 -0.053,0.041 -0.095,0.09 -0.126,0.148 L 0.854,-0.721 C 0.833,-0.777 0.809,-0.827 0.783,-0.869 l -1.06,-1.839 C -0.308,-2.763 -0.35,-2.812 -0.402,-2.854 -0.454,-2.897 -0.519,-2.919 -0.597,-2.919 h -1.231 z"
             style="fill:#231916;fill-opacity:1;fill-rule:nonzero;stroke:none"
             id="path76" />
        </g>
        <g
           id="g78"
           transform="translate(222.6539,106.6248)">
          <path
             d="m 0,0 c 0.031,0 0.062,-0.006 0.094,-0.018 0.031,-0.011 0.06,-0.032 0.09,-0.06 l 0.521,-0.55 c -0.228,-0.299 -0.516,-0.524 -0.859,-0.676 -0.344,-0.152 -0.752,-0.228 -1.223,-0.228 -0.43,0 -0.816,0.073 -1.158,0.22 -0.342,0.147 -0.633,0.349 -0.869,0.608 -0.239,0.259 -0.421,0.565 -0.548,0.92 -0.127,0.354 -0.192,0.74 -0.192,1.156 0,0.423 0.074,0.813 0.219,1.167 0.146,0.355 0.349,0.661 0.611,0.918 0.259,0.257 0.572,0.457 0.937,0.601 0.363,0.142 0.764,0.213 1.203,0.213 0.213,0 0.414,-0.018 0.604,-0.056 C -0.383,4.178 -0.207,4.125 -0.043,4.06 0.121,3.993 0.271,3.914 0.408,3.821 0.547,3.729 0.67,3.627 0.775,3.516 L 0.332,2.919 C 0.303,2.883 0.27,2.85 0.23,2.819 0.191,2.79 0.137,2.774 0.066,2.774 0.02,2.774 -0.025,2.785 -0.066,2.806 -0.107,2.827 -0.152,2.853 -0.199,2.882 -0.246,2.912 -0.297,2.944 -0.354,2.979 -0.408,3.015 -0.475,3.047 -0.551,3.077 -0.629,3.106 -0.719,3.132 -0.82,3.153 -0.924,3.174 -1.043,3.185 -1.182,3.185 -1.42,3.185 -1.639,3.142 -1.836,3.058 -2.033,2.973 -2.203,2.853 -2.344,2.695 -2.486,2.538 -2.596,2.348 -2.676,2.124 -2.756,1.9 -2.795,1.649 -2.795,1.372 c 0,-0.291 0.039,-0.55 0.119,-0.776 0.08,-0.226 0.188,-0.416 0.324,-0.571 0.135,-0.155 0.295,-0.272 0.477,-0.353 0.182,-0.08 0.377,-0.12 0.584,-0.12 0.121,0 0.229,0.006 0.328,0.017 0.1,0.012 0.19,0.032 0.276,0.061 0.083,0.028 0.164,0.065 0.24,0.11 0.078,0.046 0.154,0.103 0.232,0.17 0.031,0.026 0.065,0.047 0.102,0.065 C -0.076,-0.009 -0.039,0 0,0"
             style="fill:#231916;fill-opacity:1;fill-rule:nonzero;stroke:none"
             id="path80" />
        </g>
        <g
           id="g82"
           transform="translate(231.2565,105.1551)">
          <path
             d="M 0,0 H -1.325 V 2.401 H -3.633 V 0 h -1.325 v 5.679 h 1.325 V 3.306 h 2.308 V 5.679 H 0 Z"
             style="fill:#231916;fill-opacity:1;fill-rule:nonzero;stroke:none"
             id="path84" />
        </g>
        <path
           d="m 235.972,105.155 h -1.325 v 5.679 h 1.325 z"
           style="fill:#231916;fill-opacity:1;fill-rule:nonzero;stroke:none"
           id="path86" />
        <g
           id="g88"
           transform="translate(243.1783,106.6248)">
          <path
             d="m 0,0 c 0.031,0 0.062,-0.006 0.094,-0.018 0.031,-0.011 0.061,-0.032 0.09,-0.06 l 0.522,-0.55 C 0.478,-0.927 0.19,-1.152 -0.153,-1.304 c -0.345,-0.152 -0.752,-0.228 -1.223,-0.228 -0.431,0 -0.817,0.073 -1.159,0.22 -0.342,0.147 -0.632,0.349 -0.869,0.608 -0.238,0.259 -0.42,0.565 -0.548,0.92 -0.127,0.354 -0.191,0.74 -0.191,1.156 0,0.423 0.073,0.813 0.218,1.167 0.146,0.355 0.349,0.661 0.611,0.918 0.26,0.257 0.573,0.457 0.937,0.601 0.363,0.142 0.765,0.213 1.204,0.213 0.213,0 0.414,-0.018 0.603,-0.056 C -0.382,4.178 -0.206,4.125 -0.043,4.06 0.121,3.993 0.271,3.914 0.409,3.821 0.547,3.729 0.67,3.627 0.776,3.516 L 0.332,2.919 C 0.303,2.883 0.27,2.85 0.23,2.819 0.191,2.79 0.137,2.774 0.066,2.774 0.02,2.774 -0.024,2.785 -0.065,2.806 -0.107,2.827 -0.151,2.853 -0.198,2.882 -0.245,2.912 -0.297,2.944 -0.353,2.979 -0.408,3.015 -0.475,3.047 -0.551,3.077 -0.628,3.106 -0.718,3.132 -0.82,3.153 -0.923,3.174 -1.043,3.185 -1.181,3.185 -1.42,3.185 -1.638,3.142 -1.835,3.058 -2.033,2.973 -2.202,2.853 -2.344,2.695 -2.485,2.538 -2.596,2.348 -2.676,2.124 -2.755,1.9 -2.794,1.649 -2.794,1.372 c 0,-0.291 0.039,-0.55 0.118,-0.776 0.08,-0.226 0.188,-0.416 0.324,-0.571 0.136,-0.155 0.295,-0.272 0.478,-0.353 0.182,-0.08 0.376,-0.12 0.584,-0.12 0.12,0 0.228,0.006 0.328,0.017 0.099,0.012 0.19,0.032 0.275,0.061 0.083,0.028 0.165,0.065 0.241,0.11 0.077,0.046 0.154,0.103 0.232,0.17 0.031,0.026 0.065,0.047 0.102,0.065 C -0.076,-0.009 -0.039,0 0,0"
             style="fill:#231916;fill-opacity:1;fill-rule:nonzero;stroke:none"
             id="path90" />
        </g>
        <g
           id="g92"
           transform="translate(248.1412,108.534)">
          <path
             d="M 0,0 H 0.211 C 0.405,0 0.546,0.062 0.632,0.184 L 1.91,2.039 c 0.07,0.102 0.15,0.17 0.239,0.206 0.09,0.037 0.2,0.055 0.33,0.055 L 3.625,2.3 1.941,0.004 C 1.881,-0.079 1.819,-0.147 1.754,-0.202 1.689,-0.257 1.623,-0.303 1.555,-0.339 1.654,-0.375 1.744,-0.425 1.826,-0.488 1.908,-0.553 1.982,-0.638 2.05,-0.744 L 3.766,-3.379 H 2.588 c -0.075,0 -0.14,0.005 -0.192,0.016 -0.054,0.01 -0.1,0.026 -0.139,0.047 C 2.218,-3.296 2.184,-3.271 2.155,-3.24 2.127,-3.211 2.1,-3.176 2.073,-3.138 L 0.787,-1.161 C 0.74,-1.089 0.682,-1.037 0.61,-1.007 0.538,-0.978 0.441,-0.962 0.319,-0.962 H 0 V -3.379 H -1.317 V 2.3 L 0,2.3 Z"
             style="fill:#231916;fill-opacity:1;fill-rule:nonzero;stroke:none"
             id="path94" />
        </g>
        <g
           id="g96"
           transform="translate(178.6665,118.931)">
          <path
             d="M 0,0 C -1.361,0 -2.654,0.621 -3.739,1.757 -4.825,0.621 -6.117,0 -7.479,0 c -3.79,0 -6.761,4.807 -6.761,10.945 v 5.816 h 3.302 v -5.816 c 0,-4.377 1.826,-7.647 3.459,-7.647 0.759,0 1.605,0.777 2.272,2.077 l 1.468,2.872 1.467,-2.872 C -1.605,4.075 -0.759,3.298 0,3.298 c 1.633,0 3.459,3.27 3.459,7.647 v 5.816 H 6.761 V 10.945 C 6.761,4.807 3.79,0 0,0"
             style="fill:#020201;fill-opacity:1;fill-rule:nonzero;stroke:none"
             id="path98" />
        </g>
        <g
           id="g100"
           transform="translate(149.4179,134.0015)">
          <path
             d="m 0,0 c -3.519,0 -6.384,-2.863 -6.384,-6.382 0,-3.519 2.865,-6.379 6.384,-6.379 3.519,0 6.384,2.86 6.384,6.379 C 6.384,-2.863 3.519,0 0,0 m 0,-15.682 c -5.129,0 -9.3,4.172 -9.3,9.3 0,5.129 4.171,9.303 9.3,9.303 5.129,0 9.3,-4.174 9.3,-9.303 0,-5.128 -4.171,-9.3 -9.3,-9.3"
             style="fill:#020201;fill-opacity:1;fill-rule:nonzero;stroke:none"
             id="path102" />
        </g>
        <path
           d="m 196.2,119.422 h -3.302 v 16.92 h 3.302 z"
           style="fill:#020201;fill-opacity:1;fill-rule:nonzero;stroke:none"
           id="path104" />
        <g
           id="g106"
           transform="translate(257.7789,118.931)">
          <path
             d="M 0,0 C -1.361,0 -2.654,0.621 -3.739,1.757 -4.825,0.621 -6.117,0 -7.479,0 c -3.79,0 -6.761,4.807 -6.761,10.945 v 5.816 h 3.302 v -5.816 c 0,-4.738 2.015,-7.647 3.459,-7.647 0.759,0 1.605,0.777 2.272,2.077 l 1.468,2.872 1.467,-2.872 C -1.605,4.075 -0.759,3.298 0,3.298 c 1.633,0 3.459,3.27 3.459,7.647 v 5.816 H 6.761 V 10.945 C 6.761,4.807 3.79,0 0,0"
             style="fill:#020201;fill-opacity:1;fill-rule:nonzero;stroke:none"
             id="path108" />
        </g>
        <g
           id="g110"
           transform="translate(228.5303,134.0015)">
          <path
             d="m 0,0 c -3.519,0 -6.384,-2.863 -6.384,-6.382 0,-3.519 2.865,-6.379 6.384,-6.379 3.519,0 6.384,2.86 6.384,6.379 C 6.384,-2.863 3.519,0 0,0 m 0,-15.682 c -5.129,0 -9.3,4.172 -9.3,9.3 0,5.129 4.171,9.303 9.3,9.303 5.128,0 9.3,-4.174 9.3,-9.303 0,-5.128 -4.172,-9.3 -9.3,-9.3"
             style="fill:#020201;fill-opacity:1;fill-rule:nonzero;stroke:none"
             id="path112" />
        </g>
        <path
           d="m 275.312,119.579 h -3.302 v 16.764 h 3.302 z"
           style="fill:#020201;fill-opacity:1;fill-rule:nonzero;stroke:none"
           id="path114" />
        <path
           d="m 205.967,119.422 h -13.069 v 2.769 h 13.069 z"
           style="fill:#020201;fill-opacity:1;fill-rule:nonzero;stroke:none"
           id="path116" />
        <path
           d="M 285.079,119.422 H 272.01 v 2.769 h 13.069 z"
           style="fill:#020201;fill-opacity:1;fill-rule:nonzero;stroke:none"
           id="path118" />
      </g>
    </g>
    <g
       id="g120"
       transform="translate(207.0457,286.647)">
      <path
         d="M 0,0 -55.089,33.457 -58.755,27.418 -3.67,-6.039 Z"
         style="fill:#020201;fill-opacity:1;fill-rule:nonzero;stroke:none"
         id="path122" />
    </g>
    <g
       id="g124"
       transform="translate(201.6749,276.2646)">
      <path
         d="M 0,0 -56.847,30.798 -60.196,24.574 -3.348,-6.223 Z"
         style="fill:#020201;fill-opacity:1;fill-rule:nonzero;stroke:none"
         id="path126" />
    </g>
    <g
       id="g128"
       transform="translate(272.9941,313.9638)">
      <path
         d="m 0,0 -3.67,6.039 -55.085,-33.455 3.671,-6.039 z"
         style="fill:#020201;fill-opacity:1;fill-rule:nonzero;stroke:none"
         id="path130" />
    </g>
    <g
       id="g132"
       transform="translate(223.0741,270.0414)">
      <path
         d="M 0,0 56.805,30.699 53.456,36.922 -3.348,6.223 Z"
         style="fill:#020201;fill-opacity:1;fill-rule:nonzero;stroke:none"
         id="path134" />
    </g>
    <g
       id="g136">
      <g
         id="g138"
         clip-path="url(#clipPath142)">
        <g
           id="g144"
           transform="translate(264.2687,215.5218)">
          <path
             d="m 0,0 c -0.38,-2.801 -4.176,-14.969 -11.32,-25.12 -4.282,-6.081 -10.464,-10.828 -18.908,-14.512 -4.144,-1.808 -6.821,-5.92 -6.821,-10.48 v -3.857 h -31.615 v 3.85 c 0,4.565 -2.682,8.682 -6.835,10.487 -5.709,2.479 -11.89,5.664 -19.188,14.778 -7.055,8.813 -10.96,24.592 -10.999,24.75 0,0 -6.28,3.433 -8.988,6.858 l 2.133,-8.573 h 10e-4 c 0.27,-1.099 4.397,-17.531 12.339,-27.45 8.304,-10.375 15.652,-14.135 21.884,-16.844 1.573,-0.683 2.588,-2.256 2.588,-4.006 v -4.37 c 0,-3.608 2.936,-6.545 6.545,-6.545 h 32.654 c 3.611,0 6.546,2.937 6.546,6.545 v 4.377 c 0,1.748 1.011,3.321 2.58,4.004 9.664,4.217 16.816,9.753 21.862,16.921 7.86,11.175 12.17,26.66 12.354,27.313 L 8.945,6.699 C 6.237,3.274 0,0 0,0"
             style="fill:#020201;fill-opacity:1;fill-rule:nonzero;stroke:none"
             id="path146" />
        </g>
        <g
           id="g148"
           transform="translate(179.2977,221.7724)">
          <path
             d="m 0,0 c -16.678,2.044 -29.62,16.626 -29.916,33.426 -0.141,8.026 3.162,16.335 8.112,22.617 1.227,1.483 3.004,3.405 4.129,4.566 l -6.609,3.502 c -0.453,-0.469 -3.052,-3.134 -4.612,-5.503 l 0.013,-0.008 c -5.216,-7.077 -8.103,-15.713 -8.103,-24.54 0,-22.825 18.568,-41.396 41.394,-41.396 3.074,0 6.116,0.365 9.077,1.047 2.128,0.49 4.36,0.437 6.339,-0.485 3.146,-1.466 7.489,-4.333 10.506,-9.707 0.792,-1.412 2.787,-1.514 3.586,-0.106 1.743,3.076 4.96,7.225 10.39,9.746 2.022,0.939 4.323,1.032 6.497,0.536 2.941,-0.673 5.961,-1.031 9.013,-1.031 22.828,0 41.396,18.571 41.396,41.396 0,9.119 -3.07,18.043 -8.622,25.249 l 0.035,0.023 c -1.555,2.369 -4.312,5.205 -4.763,5.672 l -6.456,-3.669 c 1.292,-1.332 3.393,-3.625 4.582,-5.146 5.014,-6.302 8.296,-14.675 8.154,-22.763 C 93.846,16.623 80.898,2.041 64.217,-0.001 52.958,-1.379 42.286,2.56 34.698,10.717 L 32.113,13.5 29.528,10.717 C 21.938,2.558 11.26,-1.38 0,0"
             style="fill:#020201;fill-opacity:1;fill-rule:nonzero;stroke:none"
             id="path150" />
        </g>
        <g
           id="g152"
           transform="translate(192.5269,258.6427)">
          <path
             d="m 0,0 c 2.821,0 5.107,-2.287 5.107,-5.107 0,-2.821 -2.286,-5.107 -5.107,-5.107 -2.82,0 -5.107,2.286 -5.107,5.107 C -5.107,-2.287 -2.82,0 0,0 m 10.448,-6.775 c 0,7.773 -6.324,14.098 -14.097,14.098 -7.776,0 -14.1,-6.325 -14.1,-14.098 0,-7.776 6.324,-14.1 14.1,-14.1 7.773,0 14.097,6.324 14.097,14.1"
             style="fill:#020201;fill-opacity:1;fill-rule:nonzero;stroke:none"
             id="path154" />
        </g>
        <g
           id="g156"
           transform="translate(234.7318,253.5355)">
          <path
             d="m 0,0 c 0,-2.82 -2.287,-5.107 -5.107,-5.107 -2.821,0 -5.107,2.287 -5.107,5.107 0,2.821 2.286,5.107 5.107,5.107 C -2.287,5.107 0,2.821 0,0 m -15.752,-1.668 c 0,-7.775 6.324,-14.1 14.097,-14.1 7.776,0 14.1,6.325 14.1,14.1 0,7.773 -6.324,14.098 -14.1,14.098 -7.773,0 -14.097,-6.325 -14.097,-14.098"
             style="fill:#020201;fill-opacity:1;fill-rule:nonzero;stroke:none"
             id="path158" />
        </g>
        <g
           id="g160"
           transform="translate(174.7599,106.6248)">
          <path
             d="m 0,0 c -0.023,-0.089 -0.066,-0.168 -0.128,-0.238 -0.063,-0.071 -0.149,-0.127 -0.26,-0.171 -0.11,-0.045 -0.253,-0.067 -0.426,-0.067 h -0.928 v 1.415 h 0.92 c 0.166,0 0.303,-0.015 0.413,-0.046 C -0.3,0.861 -0.212,0.816 -0.146,0.76 -0.08,0.702 -0.033,0.633 -0.006,0.549 0.021,0.466 0.035,0.372 0.035,0.269 0.035,0.178 0.023,0.088 0,0 m -1.742,3.223 h 0.772 c 0.148,0 0.276,-0.012 0.384,-0.035 C -0.479,3.165 -0.39,3.126 -0.319,3.071 -0.25,3.017 -0.197,2.944 -0.164,2.854 -0.13,2.765 -0.113,2.652 -0.113,2.518 -0.113,2.38 -0.134,2.266 -0.177,2.175 -0.22,2.084 -0.283,2.012 -0.364,1.96 -0.446,1.908 -0.545,1.872 -0.663,1.852 -0.779,1.83 -0.911,1.82 -1.056,1.82 H -1.742 Z M 0.238,1.469 C 0.409,1.531 0.556,1.604 0.678,1.689 0.8,1.773 0.9,1.868 0.979,1.972 1.056,2.076 1.113,2.187 1.15,2.306 c 0.036,0.118 0.055,0.24 0.055,0.368 0,0.233 -0.04,0.445 -0.12,0.635 C 1.006,3.498 0.879,3.659 0.706,3.792 0.531,3.925 0.307,4.027 0.031,4.1 -0.244,4.173 -0.578,4.209 -0.97,4.209 H -3.06 V -1.47 h 2.269 c 0.34,0 0.643,0.044 0.908,0.131 0.265,0.087 0.488,0.208 0.669,0.362 0.18,0.155 0.317,0.336 0.411,0.544 0.093,0.208 0.14,0.433 0.14,0.674 0,0.32 -0.089,0.581 -0.269,0.785 C 0.889,1.23 0.612,1.378 0.238,1.469"
             style="fill:#020201;fill-opacity:1;fill-rule:nonzero;stroke:none"
             id="path162" />
        </g>
        <g
           id="g164"
           transform="translate(183.2994,107.2342)">
          <path
             d="M 0,0 C -0.073,-0.225 -0.177,-0.415 -0.313,-0.57 -0.45,-0.727 -0.617,-0.846 -0.814,-0.928 -1.012,-1.009 -1.237,-1.05 -1.489,-1.05 c -0.255,0 -0.481,0.041 -0.68,0.122 -0.199,0.082 -0.366,0.201 -0.503,0.358 -0.136,0.155 -0.241,0.345 -0.313,0.57 -0.073,0.225 -0.11,0.479 -0.11,0.763 0,0.28 0.037,0.533 0.11,0.758 0.072,0.224 0.177,0.415 0.313,0.571 0.137,0.155 0.304,0.275 0.503,0.358 0.199,0.083 0.425,0.125 0.68,0.125 0.252,0 0.477,-0.042 0.675,-0.125 C -0.617,2.367 -0.45,2.247 -0.313,2.092 -0.177,1.936 -0.073,1.745 0,1.521 0.073,1.296 0.109,1.043 0.109,0.763 0.109,0.479 0.073,0.225 0,0 M 0.647,2.824 C 0.39,3.084 0.08,3.289 -0.282,3.438 -0.645,3.588 -1.047,3.662 -1.489,3.662 -1.931,3.662 -2.333,3.588 -2.697,3.44 -3.061,3.292 -3.372,3.088 -3.63,2.828 -3.889,2.568 -4.089,2.262 -4.231,1.908 -4.373,1.555 -4.443,1.173 -4.443,0.763 c 0,-0.411 0.07,-0.793 0.212,-1.147 0.142,-0.353 0.342,-0.66 0.601,-0.922 0.258,-0.26 0.569,-0.465 0.933,-0.613 0.364,-0.148 0.766,-0.223 1.208,-0.223 0.442,0 0.844,0.075 1.207,0.223 0.362,0.148 0.672,0.353 0.929,0.613 0.257,0.262 0.457,0.569 0.599,0.922 0.141,0.354 0.212,0.736 0.212,1.147 0,0.407 -0.071,0.788 -0.212,1.141 -0.142,0.354 -0.342,0.66 -0.599,0.92"
             style="fill:#020201;fill-opacity:1;fill-rule:nonzero;stroke:none"
             id="path166" />
        </g>
        <g
           id="g168"
           transform="translate(190.7872,106.6248)">
          <path
             d="m 0,0 c -0.023,-0.089 -0.066,-0.168 -0.128,-0.238 -0.063,-0.071 -0.149,-0.127 -0.26,-0.171 -0.11,-0.045 -0.253,-0.067 -0.426,-0.067 h -0.928 v 1.415 h 0.92 c 0.166,0 0.303,-0.015 0.413,-0.046 C -0.3,0.861 -0.212,0.816 -0.146,0.76 -0.08,0.702 -0.033,0.633 -0.006,0.549 0.021,0.466 0.035,0.372 0.035,0.269 0.035,0.178 0.023,0.088 0,0 m -1.742,3.223 h 0.772 c 0.148,0 0.276,-0.012 0.384,-0.035 C -0.479,3.165 -0.39,3.126 -0.319,3.071 -0.25,3.017 -0.197,2.944 -0.164,2.854 -0.13,2.765 -0.113,2.652 -0.113,2.518 -0.113,2.38 -0.134,2.266 -0.177,2.175 -0.22,2.084 -0.283,2.012 -0.364,1.96 -0.446,1.908 -0.545,1.872 -0.663,1.852 -0.779,1.83 -0.911,1.82 -1.056,1.82 H -1.742 Z M 0.238,1.469 C 0.409,1.531 0.556,1.604 0.678,1.689 0.8,1.773 0.9,1.868 0.979,1.972 1.056,2.076 1.113,2.187 1.15,2.306 c 0.036,0.118 0.055,0.24 0.055,0.368 0,0.233 -0.04,0.445 -0.12,0.635 C 1.006,3.498 0.879,3.659 0.706,3.792 0.531,3.925 0.307,4.027 0.031,4.1 -0.244,4.173 -0.578,4.209 -0.97,4.209 H -3.06 V -1.47 h 2.269 c 0.34,0 0.643,0.044 0.908,0.131 0.265,0.087 0.488,0.208 0.669,0.362 0.18,0.155 0.317,0.336 0.411,0.544 0.093,0.208 0.14,0.433 0.14,0.674 0,0.32 -0.089,0.581 -0.269,0.785 C 0.889,1.23 0.612,1.378 0.238,1.469"
             style="fill:#020201;fill-opacity:1;fill-rule:nonzero;stroke:none"
             id="path170" />
        </g>
        <g
           id="g172"
           transform="translate(196.817,107.326)">
          <path
             d="M 0,0 0.522,1.548 C 0.561,1.646 0.603,1.763 0.647,1.898 0.691,2.033 0.734,2.181 0.775,2.339 0.819,2.183 0.864,2.038 0.91,1.904 0.956,1.771 0.995,1.654 1.029,1.556 L 1.551,0 Z m 0.101,3.508 -2.198,-5.679 h 1.029 c 0.109,0 0.201,0.029 0.276,0.088 0.076,0.059 0.126,0.124 0.152,0.196 l 0.336,0.991 H 1.855 L 2.19,-1.887 c 0.029,-0.083 0.08,-0.151 0.154,-0.204 0.074,-0.054 0.169,-0.08 0.283,-0.08 H 3.648 L 1.45,3.508 Z"
             style="fill:#020201;fill-opacity:1;fill-rule:nonzero;stroke:none"
             id="path174" />
        </g>
        <g
           id="g176"
           transform="translate(212.111,110.8338)">
          <path
             d="m 0,0 h -1.263 c -0.112,0 -0.2,-0.055 -0.265,-0.163 l -0.99,-1.7 C -2.539,-1.896 -2.557,-1.929 -2.574,-1.96 -2.591,-1.991 -2.606,-2.024 -2.619,-2.058 l -1.131,1.914 c -0.031,0.052 -0.066,0.089 -0.106,0.111 C -3.897,-0.011 -3.96,0 -4.045,0 h -1.318 l 1.758,-2.76 -1.828,-2.919 h 1.231 c 0.078,0 0.143,0.022 0.195,0.065 0.052,0.043 0.094,0.092 0.125,0.146 l 1.06,1.839 c 0.026,0.042 0.05,0.092 0.071,0.149 l 1.138,-1.988 c 0.031,-0.057 0.073,-0.107 0.126,-0.148 0.053,-0.042 0.123,-0.063 0.209,-0.063 h 1.317 l -1.82,2.978 z"
             style="fill:#020201;fill-opacity:1;fill-rule:nonzero;stroke:none"
             id="path178" />
        </g>
        <g
           id="g180"
           transform="translate(220.3102,109.3201)">
          <path
             d="M 0,0 C 0.141,0.157 0.311,0.277 0.508,0.362 0.705,0.446 0.924,0.489 1.162,0.489 1.301,0.489 1.42,0.479 1.523,0.458 1.625,0.437 1.715,0.411 1.793,0.382 1.869,0.352 1.936,0.319 1.99,0.284 2.047,0.249 2.098,0.217 2.145,0.187 2.191,0.157 2.236,0.132 2.277,0.11 2.318,0.09 2.363,0.079 2.41,0.079 c 0.07,0 0.125,0.016 0.164,0.045 0.039,0.03 0.072,0.063 0.102,0.1 L 3.119,0.82 C 3.014,0.932 2.891,1.034 2.752,1.126 2.615,1.219 2.465,1.298 2.301,1.364 2.137,1.43 1.961,1.482 1.773,1.52 1.584,1.558 1.383,1.576 1.17,1.576 0.73,1.576 0.33,1.505 -0.033,1.362 -0.398,1.219 -0.711,1.019 -0.971,0.762 -1.232,0.505 -1.436,0.198 -1.581,-0.156 -1.727,-0.511 -1.8,-0.9 -1.8,-1.323 c 0,-0.416 0.065,-0.802 0.192,-1.156 0.127,-0.355 0.309,-0.662 0.547,-0.92 0.237,-0.259 0.528,-0.461 0.87,-0.608 0.341,-0.147 0.728,-0.221 1.158,-0.221 0.47,0 0.879,0.077 1.222,0.229 0.344,0.151 0.631,0.377 0.86,0.676 l -0.522,0.55 C 2.498,-2.745 2.469,-2.725 2.438,-2.713 2.406,-2.701 2.375,-2.695 2.344,-2.695 2.305,-2.695 2.268,-2.704 2.23,-2.721 2.193,-2.738 2.16,-2.76 2.129,-2.785 2.051,-2.853 1.975,-2.909 1.896,-2.955 1.82,-3 1.74,-3.037 1.656,-3.065 1.57,-3.095 1.48,-3.114 1.381,-3.126 1.281,-3.138 1.174,-3.144 1.053,-3.144 c -0.207,0 -0.403,0.04 -0.584,0.121 -0.182,0.081 -0.342,0.198 -0.477,0.353 -0.137,0.154 -0.244,0.345 -0.324,0.57 -0.08,0.227 -0.119,0.486 -0.119,0.777 0,0.277 0.039,0.528 0.119,0.752 C -0.252,-0.348 -0.143,-0.157 0,0"
             style="fill:#020201;fill-opacity:1;fill-rule:nonzero;stroke:none"
             id="path182" />
        </g>
        <g
           id="g184"
           transform="translate(229.9313,108.4608)">
          <path
             d="m 0,0 h -2.308 v 2.373 h -1.325 v -5.679 h 1.325 v 2.402 H 0 V -3.306 H 1.325 V 2.373 H 0 Z"
             style="fill:#020201;fill-opacity:1;fill-rule:nonzero;stroke:none"
             id="path186" />
        </g>
        <path
           d="m 234.647,105.155 h 1.325 v 5.679 h -1.325 z"
           style="fill:#020201;fill-opacity:1;fill-rule:nonzero;stroke:none"
           id="path188" />
        <g
           id="g190"
           transform="translate(240.8346,109.3201)">
          <path
             d="m 0,0 c 0.142,0.157 0.311,0.277 0.509,0.362 0.197,0.084 0.415,0.127 0.654,0.127 0.138,0 0.258,-0.01 0.36,-0.031 C 1.626,0.437 1.716,0.411 1.793,0.382 1.869,0.352 1.936,0.319 1.991,0.284 2.047,0.249 2.099,0.217 2.146,0.187 2.192,0.157 2.236,0.132 2.278,0.11 2.319,0.09 2.363,0.079 2.41,0.079 c 0.07,0 0.125,0.016 0.164,0.045 0.039,0.03 0.072,0.063 0.102,0.1 L 3.12,0.82 C 3.014,0.932 2.891,1.034 2.753,1.126 2.615,1.219 2.465,1.298 2.301,1.364 2.138,1.43 1.962,1.482 1.773,1.52 1.585,1.558 1.384,1.576 1.171,1.576 0.731,1.576 0.33,1.505 -0.033,1.362 -0.397,1.219 -0.71,1.019 -0.971,0.762 -1.232,0.505 -1.436,0.198 -1.581,-0.156 -1.727,-0.511 -1.799,-0.9 -1.799,-1.323 c 0,-0.416 0.064,-0.802 0.191,-1.156 0.128,-0.355 0.31,-0.662 0.547,-0.92 0.238,-0.259 0.528,-0.461 0.87,-0.608 0.341,-0.147 0.728,-0.221 1.159,-0.221 0.47,0 0.878,0.077 1.222,0.229 0.344,0.151 0.631,0.377 0.86,0.676 l -0.523,0.55 c -0.028,0.028 -0.058,0.048 -0.089,0.06 -0.032,0.012 -0.063,0.018 -0.094,0.018 -0.039,0 -0.076,-0.009 -0.113,-0.026 C 2.194,-2.738 2.161,-2.76 2.13,-2.785 2.052,-2.853 1.975,-2.909 1.897,-2.955 1.821,-3 1.74,-3.037 1.656,-3.065 1.571,-3.095 1.48,-3.114 1.382,-3.126 1.282,-3.138 1.174,-3.144 1.054,-3.144 c -0.208,0 -0.403,0.04 -0.584,0.121 -0.183,0.081 -0.342,0.198 -0.478,0.353 -0.137,0.154 -0.244,0.345 -0.324,0.57 -0.079,0.227 -0.118,0.486 -0.118,0.777 0,0.277 0.039,0.528 0.118,0.752 0.08,0.223 0.19,0.414 0.332,0.571"
             style="fill:#020201;fill-opacity:1;fill-rule:nonzero;stroke:none"
             id="path192" />
        </g>
        <g
           id="g194"
           transform="translate(249.9674,108.0457)">
          <path
             d="m 0,0 c -0.082,0.063 -0.172,0.113 -0.271,0.149 0.068,0.037 0.134,0.082 0.199,0.137 0.065,0.055 0.127,0.123 0.187,0.206 L 1.799,2.788 H 0.652 C 0.522,2.788 0.413,2.771 0.323,2.733 0.233,2.697 0.154,2.629 0.084,2.527 L -1.194,0.672 C -1.28,0.55 -1.421,0.488 -1.615,0.488 h -0.211 v 2.3 h -1.318 v -5.679 h 1.318 v 2.417 h 0.319 c 0.122,0 0.219,-0.015 0.291,-0.045 0.071,-0.03 0.13,-0.082 0.177,-0.154 L 0.247,-2.649 C 0.273,-2.688 0.301,-2.723 0.329,-2.752 0.357,-2.782 0.392,-2.808 0.431,-2.828 0.47,-2.849 0.516,-2.864 0.569,-2.875 0.622,-2.886 0.687,-2.891 0.762,-2.891 H 1.939 L 0.224,-0.256 C 0.156,-0.149 0.082,-0.064 0,0"
             style="fill:#020201;fill-opacity:1;fill-rule:nonzero;stroke:none"
             id="path196" />
        </g>
        <g
           id="g198"
           transform="translate(182.1254,129.8757)">
          <path
             d="m 0,0 c 0,-4.376 -1.826,-7.647 -3.459,-7.647 -0.759,0 -1.605,0.778 -2.272,2.077 l -1.467,2.872 -1.468,-2.872 c -0.667,-1.299 -1.513,-2.077 -2.272,-2.077 -1.633,0 -3.459,3.271 -3.459,7.647 v 5.816 h -3.302 V 0 c 0,-6.138 2.971,-10.945 6.761,-10.945 1.362,0 2.654,0.621 3.74,1.757 1.085,-1.136 2.378,-1.757 3.739,-1.757 3.79,0 6.761,4.807 6.761,10.945 V 5.816 H 0 Z"
             style="fill:#020201;fill-opacity:1;fill-rule:nonzero;stroke:none"
             id="path200" />
        </g>
        <g
           id="g202"
           transform="translate(149.4179,121.24)">
          <path
             d="m 0,0 c -3.519,0 -6.384,2.861 -6.384,6.38 0,3.518 2.865,6.381 6.384,6.381 3.519,0 6.384,-2.863 6.384,-6.381 C 6.384,2.861 3.519,0 0,0 m 0,15.682 c -5.129,0 -9.3,-4.174 -9.3,-9.302 0,-5.129 4.171,-9.301 9.3,-9.301 5.128,0 9.3,4.172 9.3,9.301 0,5.128 -4.172,9.302 -9.3,9.302"
             style="fill:#020201;fill-opacity:1;fill-rule:nonzero;stroke:none"
             id="path204" />
        </g>
        <g
           id="g206"
           transform="translate(196.2,136.3427)">
          <path
             d="M 0,0 H -3.302 V -14.151 -16.92 H 0 9.767 v 2.769 H 0 Z"
             style="fill:#020201;fill-opacity:1;fill-rule:nonzero;stroke:none"
             id="path208" />
        </g>
        <g
           id="g210"
           transform="translate(261.2378,129.8757)">
          <path
             d="m 0,0 c 0,-4.376 -1.826,-7.647 -3.459,-7.647 -0.759,0 -1.605,0.778 -2.272,2.077 l -1.467,2.872 -1.468,-2.872 c -0.667,-1.299 -1.513,-2.077 -2.272,-2.077 -1.444,0 -3.459,2.909 -3.459,7.647 v 5.816 h -3.302 V 0 c 0,-6.138 2.971,-10.945 6.761,-10.945 1.362,0 2.654,0.621 3.74,1.757 1.085,-1.136 2.378,-1.757 3.739,-1.757 3.79,0 6.761,4.807 6.761,10.945 V 5.816 H 0 Z"
             style="fill:#020201;fill-opacity:1;fill-rule:nonzero;stroke:none"
             id="path212" />
        </g>
        <g
           id="g214"
           transform="translate(228.5303,121.24)">
          <path
             d="m 0,0 c -3.519,0 -6.384,2.861 -6.384,6.38 0,3.518 2.865,6.381 6.384,6.381 3.519,0 6.384,-2.863 6.384,-6.381 C 6.384,2.861 3.519,0 0,0 m 0,15.682 c -5.128,0 -9.3,-4.174 -9.3,-9.302 0,-5.129 4.172,-9.301 9.3,-9.301 5.129,0 9.3,4.172 9.3,9.301 0,5.128 -4.171,9.302 -9.3,9.302"
             style="fill:#020201;fill-opacity:1;fill-rule:nonzero;stroke:none"
             id="path216" />
        </g>
        <g
           id="g218"
           transform="translate(275.3124,122.1916)">
          <path
             d="M 0,0 V 14.151 H -3.302 V 0 -2.612 -2.769 H 9.767 l 0,2.769 z"
             style="fill:#020201;fill-opacity:1;fill-rule:nonzero;stroke:none"
             id="path220" />
        </g>
      </g>
    </g>
    <path
       d="M 0,0 H 425.197 V 425.197 H 0 Z"
       style="fill:#000000;fill-opacity:1;fill-rule:nonzero;stroke:none"
       id="path222" />
    <g
       id="g224">
      <g
         id="g226"
         clip-path="url(#clipPath230)">
        <g
           id="g232"
           transform="translate(174.5125,106.6794)">
          <path
             d="m 0,0 c -0.023,-0.088 -0.066,-0.168 -0.128,-0.236 -0.062,-0.07 -0.148,-0.127 -0.258,-0.171 -0.11,-0.044 -0.251,-0.066 -0.424,-0.066 h -0.923 v 1.408 h 0.915 c 0.165,0 0.303,-0.016 0.411,-0.048 0.109,-0.031 0.195,-0.073 0.262,-0.13 C -0.079,0.7 -0.033,0.63 -0.006,0.547 0.021,0.464 0.035,0.37 0.035,0.267 0.035,0.177 0.023,0.088 0,0 m -1.733,3.207 h 0.767 c 0.148,0 0.275,-0.013 0.382,-0.035 C -0.477,3.148 -0.388,3.109 -0.318,3.056 -0.249,3.001 -0.197,2.929 -0.163,2.84 -0.13,2.75 -0.112,2.638 -0.112,2.504 -0.112,2.367 -0.133,2.253 -0.177,2.163 -0.219,2.073 -0.281,2.001 -0.363,1.949 -0.444,1.898 -0.543,1.863 -0.659,1.841 -0.776,1.821 -0.906,1.81 -1.051,1.81 H -1.733 Z M 0.237,1.462 C 0.407,1.524 0.553,1.596 0.675,1.681 0.796,1.765 0.896,1.857 0.973,1.962 1.05,2.065 1.107,2.176 1.143,2.294 1.18,2.412 1.197,2.533 1.197,2.66 1.197,2.892 1.159,3.102 1.08,3.291 1.001,3.479 0.874,3.641 0.701,3.772 0.528,3.905 0.305,4.006 0.031,4.079 -0.243,4.151 -0.575,4.186 -0.966,4.186 h -2.078 v -5.648 h 2.257 c 0.339,0 0.64,0.043 0.903,0.131 0.264,0.087 0.485,0.206 0.665,0.359 0.18,0.155 0.316,0.335 0.409,0.541 C 1.283,-0.223 1.33,0 1.33,0.241 1.33,0.558 1.241,0.819 1.062,1.022 0.884,1.224 0.608,1.371 0.237,1.462"
             style="fill:#ffffff;fill-opacity:1;fill-rule:nonzero;stroke:none"
             id="path234" />
        </g>
        <g
           id="g236"
           transform="translate(183.0063,107.2868)">
          <path
             d="m 0,0 c -0.073,-0.225 -0.177,-0.414 -0.312,-0.569 -0.135,-0.154 -0.302,-0.272 -0.498,-0.355 -0.197,-0.081 -0.421,-0.122 -0.671,-0.122 -0.253,0 -0.479,0.041 -0.677,0.122 -0.197,0.083 -0.364,0.201 -0.499,0.355 -0.137,0.155 -0.241,0.344 -0.312,0.569 -0.073,0.223 -0.109,0.475 -0.109,0.757 0,0.279 0.036,0.53 0.109,0.754 0.071,0.223 0.175,0.413 0.312,0.567 0.135,0.157 0.302,0.275 0.499,0.357 0.198,0.083 0.424,0.126 0.677,0.126 0.25,0 0.474,-0.043 0.671,-0.126 0.196,-0.082 0.363,-0.2 0.498,-0.357 C -0.177,1.924 -0.073,1.734 0,1.511 0.073,1.287 0.109,1.036 0.109,0.757 0.109,0.475 0.073,0.223 0,0 M 0.643,2.807 C 0.387,3.067 0.079,3.269 -0.281,3.419 -0.642,3.568 -1.042,3.641 -1.481,3.641 -1.92,3.641 -2.321,3.568 -2.683,3.42 -3.045,3.273 -3.354,3.071 -3.611,2.811 -3.869,2.553 -4.067,2.248 -4.208,1.896 -4.349,1.546 -4.42,1.165 -4.42,0.757 c 0,-0.409 0.071,-0.788 0.212,-1.14 0.141,-0.352 0.339,-0.657 0.597,-0.917 0.257,-0.259 0.566,-0.464 0.928,-0.611 0.362,-0.147 0.763,-0.221 1.202,-0.221 0.439,0 0.839,0.074 1.2,0.221 0.36,0.147 0.668,0.352 0.924,0.611 0.256,0.26 0.455,0.565 0.596,0.917 C 1.38,-0.031 1.45,0.348 1.45,0.757 1.45,1.163 1.38,1.541 1.239,1.892 1.098,2.244 0.899,2.55 0.643,2.807"
             style="fill:#ffffff;fill-opacity:1;fill-rule:nonzero;stroke:none"
             id="path238" />
        </g>
        <g
           id="g240"
           transform="translate(190.4545,106.6794)">
          <path
             d="m 0,0 c -0.023,-0.088 -0.066,-0.168 -0.128,-0.236 -0.062,-0.07 -0.148,-0.127 -0.258,-0.171 -0.11,-0.044 -0.251,-0.066 -0.424,-0.066 h -0.923 v 1.408 h 0.915 c 0.165,0 0.303,-0.016 0.411,-0.048 0.109,-0.031 0.195,-0.073 0.262,-0.13 C -0.079,0.7 -0.033,0.63 -0.006,0.547 0.021,0.464 0.035,0.37 0.035,0.267 0.035,0.177 0.023,0.088 0,0 m -1.733,3.207 h 0.767 c 0.148,0 0.275,-0.013 0.382,-0.035 C -0.477,3.148 -0.387,3.109 -0.318,3.056 -0.249,3.001 -0.197,2.929 -0.163,2.84 -0.13,2.75 -0.112,2.638 -0.112,2.504 -0.112,2.367 -0.133,2.253 -0.177,2.163 -0.219,2.073 -0.281,2.001 -0.363,1.949 -0.444,1.898 -0.543,1.863 -0.659,1.841 -0.776,1.821 -0.906,1.81 -1.051,1.81 H -1.733 Z M 0.237,1.462 C 0.407,1.524 0.553,1.596 0.675,1.681 0.796,1.765 0.896,1.857 0.973,1.962 1.05,2.065 1.107,2.176 1.143,2.294 1.18,2.412 1.197,2.533 1.197,2.66 1.197,2.892 1.159,3.102 1.08,3.291 1.001,3.479 0.874,3.641 0.701,3.772 0.528,3.905 0.305,4.006 0.031,4.079 -0.243,4.151 -0.575,4.186 -0.966,4.186 h -2.078 v -5.648 h 2.257 c 0.339,0 0.64,0.043 0.903,0.131 0.264,0.087 0.485,0.206 0.665,0.359 0.18,0.155 0.316,0.335 0.409,0.541 C 1.283,-0.223 1.33,0 1.33,0.241 1.33,0.558 1.241,0.819 1.062,1.022 0.884,1.224 0.608,1.371 0.237,1.462"
             style="fill:#ffffff;fill-opacity:1;fill-rule:nonzero;stroke:none"
             id="path242" />
        </g>
        <g
           id="g244"
           transform="translate(196.4521,107.377)">
          <path
             d="M 0,0 0.519,1.539 C 0.558,1.637 0.599,1.754 0.643,1.889 0.687,2.023 0.73,2.169 0.771,2.327 0.815,2.17 0.86,2.027 0.905,1.894 0.95,1.762 0.989,1.646 1.023,1.546 L 1.543,0 Z m 0.1,3.488 -2.187,-5.647 h 1.024 c 0.109,0 0.201,0.029 0.275,0.086 0.076,0.059 0.126,0.124 0.152,0.197 l 0.333,0.985 H 1.845 L 2.179,-1.876 C 2.207,-1.959 2.258,-2.027 2.331,-2.08 2.405,-2.134 2.499,-2.159 2.612,-2.159 H 3.628 L 1.441,3.488 Z"
             style="fill:#ffffff;fill-opacity:1;fill-rule:nonzero;stroke:none"
             id="path246" />
        </g>
        <g
           id="g248"
           transform="translate(211.6651,110.8655)">
          <path
             d="M 0,0 H -1.256 C -1.368,0 -1.455,-0.053 -1.52,-0.162 l -0.985,-1.69 C -2.526,-1.885 -2.544,-1.918 -2.561,-1.949 -2.578,-1.981 -2.593,-2.012 -2.606,-2.047 L -3.73,-0.142 C -3.761,-0.09 -3.797,-0.053 -3.836,-0.031 -3.877,-0.011 -3.939,0 -4.024,0 h -1.311 l 1.749,-2.745 -1.819,-2.903 h 1.225 c 0.078,0 0.143,0.022 0.194,0.065 0.052,0.042 0.093,0.09 0.125,0.145 l 1.054,1.83 c 0.025,0.04 0.048,0.09 0.07,0.147 l 1.132,-1.977 c 0.031,-0.057 0.072,-0.107 0.126,-0.147 0.052,-0.043 0.121,-0.063 0.207,-0.063 h 1.311 l -1.811,2.962 z"
             style="fill:#ffffff;fill-opacity:1;fill-rule:nonzero;stroke:none"
             id="path250" />
        </g>
        <g
           id="g252"
           transform="translate(219.8193,109.3597)">
          <path
             d="M 0,0 C 0.142,0.156 0.31,0.278 0.506,0.361 0.703,0.445 0.92,0.488 1.158,0.488 1.295,0.488 1.414,0.477 1.516,0.457 1.618,0.434 1.707,0.411 1.784,0.381 1.86,0.352 1.926,0.318 1.982,0.283 2.037,0.249 2.088,0.215 2.135,0.186 2.181,0.156 2.225,0.133 2.266,0.11 2.308,0.09 2.352,0.079 2.399,0.079 c 0.069,0 0.123,0.017 0.163,0.046 0.038,0.03 0.071,0.063 0.1,0.098 L 3.104,0.817 C 2.998,0.928 2.876,1.029 2.739,1.121 2.602,1.213 2.453,1.292 2.29,1.357 2.127,1.423 1.952,1.475 1.764,1.513 1.577,1.55 1.377,1.568 1.165,1.568 0.729,1.568 0.33,1.498 -0.032,1.355 -0.394,1.213 -0.705,1.014 -0.965,0.758 -1.225,0.503 -1.427,0.199 -1.571,-0.155 c -0.146,-0.353 -0.217,-0.74 -0.217,-1.161 0,-0.413 0.062,-0.795 0.189,-1.149 0.127,-0.353 0.309,-0.657 0.545,-0.915 0.237,-0.258 0.525,-0.458 0.864,-0.606 0.34,-0.145 0.725,-0.219 1.154,-0.219 0.467,0 0.873,0.076 1.216,0.229 0.342,0.151 0.626,0.373 0.854,0.672 L 2.515,-2.758 C 2.486,-2.73 2.457,-2.71 2.425,-2.699 2.394,-2.686 2.364,-2.68 2.332,-2.68 2.294,-2.68 2.256,-2.69 2.22,-2.706 2.184,-2.723 2.15,-2.743 2.119,-2.769 2.042,-2.837 1.965,-2.894 1.889,-2.938 1.812,-2.984 1.732,-3.021 1.649,-3.049 1.564,-3.078 1.473,-3.096 1.375,-3.109 1.277,-3.12 1.168,-3.126 1.049,-3.126 c -0.207,0 -0.4,0.041 -0.581,0.12 -0.182,0.081 -0.34,0.197 -0.475,0.351 -0.136,0.153 -0.243,0.343 -0.323,0.567 -0.078,0.225 -0.117,0.483 -0.117,0.772 0,0.278 0.039,0.526 0.117,0.749 C -0.25,-0.346 -0.141,-0.156 0,0"
             style="fill:#ffffff;fill-opacity:1;fill-rule:nonzero;stroke:none"
             id="path254" />
        </g>
        <g
           id="g256"
           transform="translate(229.39,108.5055)">
          <path
             d="m 0,0 h -2.295 v 2.36 h -1.319 v -5.648 h 1.319 V -0.9 H 0 V -3.288 H 1.318 V 2.36 H 0 Z"
             style="fill:#ffffff;fill-opacity:1;fill-rule:nonzero;stroke:none"
             id="path258" />
        </g>
        <path
           d="m 234.082,105.218 h 1.318 v 5.648 h -1.318 z"
           style="fill:#ffffff;fill-opacity:1;fill-rule:nonzero;stroke:none"
           id="path260" />
        <g
           id="g262"
           transform="translate(240.2346,109.3597)">
          <path
             d="M 0,0 C 0.142,0.156 0.31,0.278 0.506,0.361 0.703,0.445 0.92,0.488 1.158,0.488 1.295,0.488 1.414,0.477 1.516,0.457 1.618,0.434 1.707,0.411 1.784,0.381 1.86,0.352 1.926,0.318 1.982,0.283 2.037,0.249 2.088,0.215 2.134,0.186 2.181,0.156 2.225,0.133 2.266,0.11 2.308,0.09 2.352,0.079 2.399,0.079 c 0.069,0 0.123,0.017 0.163,0.046 0.038,0.03 0.071,0.063 0.1,0.098 L 3.104,0.817 C 2.998,0.928 2.876,1.029 2.739,1.121 2.602,1.213 2.453,1.292 2.29,1.357 2.127,1.423 1.952,1.475 1.764,1.513 1.577,1.55 1.377,1.568 1.165,1.568 0.729,1.568 0.33,1.498 -0.032,1.355 -0.394,1.213 -0.705,1.014 -0.965,0.758 -1.225,0.503 -1.427,0.199 -1.571,-0.155 c -0.146,-0.353 -0.217,-0.74 -0.217,-1.161 0,-0.413 0.062,-0.795 0.189,-1.149 0.127,-0.353 0.309,-0.657 0.545,-0.915 0.237,-0.258 0.525,-0.458 0.864,-0.606 0.34,-0.145 0.725,-0.219 1.154,-0.219 0.467,0 0.873,0.076 1.216,0.229 0.342,0.151 0.626,0.373 0.854,0.672 L 2.515,-2.758 C 2.486,-2.73 2.457,-2.71 2.425,-2.699 2.394,-2.686 2.364,-2.68 2.332,-2.68 2.294,-2.68 2.256,-2.69 2.22,-2.706 2.184,-2.723 2.15,-2.743 2.119,-2.769 2.042,-2.837 1.965,-2.894 1.889,-2.938 1.812,-2.984 1.732,-3.021 1.648,-3.049 1.564,-3.078 1.473,-3.096 1.375,-3.109 1.277,-3.12 1.168,-3.126 1.049,-3.126 c -0.207,0 -0.4,0.041 -0.581,0.12 -0.182,0.081 -0.34,0.197 -0.475,0.351 -0.136,0.153 -0.243,0.343 -0.323,0.567 -0.078,0.225 -0.117,0.483 -0.117,0.772 0,0.278 0.039,0.526 0.117,0.749 C -0.25,-0.346 -0.141,-0.156 0,0"
             style="fill:#ffffff;fill-opacity:1;fill-rule:nonzero;stroke:none"
             id="path264" />
        </g>
        <g
           id="g266"
           transform="translate(249.3185,108.0932)">
          <path
             d="m 0,0 c -0.081,0.063 -0.171,0.112 -0.269,0.149 0.067,0.035 0.133,0.081 0.198,0.134 0.065,0.056 0.126,0.124 0.186,0.207 L 1.789,2.772 H 0.65 C 0.521,2.772 0.411,2.756 0.322,2.719 0.233,2.682 0.154,2.614 0.084,2.513 L -1.188,0.668 C -1.273,0.547 -1.413,0.486 -1.606,0.486 h -0.21 v 2.286 h -1.311 v -5.647 h 1.311 v 2.404 h 0.318 c 0.121,0 0.218,-0.015 0.289,-0.044 0.07,-0.032 0.129,-0.081 0.176,-0.155 l 1.28,-1.964 C 0.272,-2.673 0.299,-2.708 0.328,-2.737 0.356,-2.767 0.39,-2.793 0.429,-2.813 0.468,-2.835 0.514,-2.85 0.566,-2.861 0.619,-2.87 0.683,-2.875 0.758,-2.875 H 1.929 L 0.224,-0.254 C 0.156,-0.149 0.082,-0.064 0,0"
             style="fill:#ffffff;fill-opacity:1;fill-rule:nonzero;stroke:none"
             id="path268" />
        </g>
        <g
           id="g270"
           transform="translate(181.8393,129.8085)">
          <path
             d="m 0,0 c 0,-4.353 -1.816,-7.606 -3.44,-7.606 -0.755,0 -1.597,0.773 -2.261,2.066 L -7.16,-2.683 -8.619,-5.54 c -0.664,-1.293 -1.506,-2.066 -2.26,-2.066 -1.625,0 -3.441,3.253 -3.441,7.606 v 5.785 h -3.285 V 0 c 0,-6.105 2.956,-10.886 6.726,-10.886 1.354,0 2.639,0.617 3.719,1.747 1.08,-1.13 2.365,-1.747 3.72,-1.747 3.769,0 6.725,4.781 6.725,10.886 V 5.785 H 0 Z"
             style="fill:#ffffff;fill-opacity:1;fill-rule:nonzero;stroke:none"
             id="path272" />
        </g>
        <g
           id="g274"
           transform="translate(149.3062,121.2188)">
          <path
             d="m 0,0 c -3.5,0 -6.35,2.846 -6.35,6.346 0,3.499 2.85,6.347 6.35,6.347 3.5,0 6.35,-2.848 6.35,-6.347 C 6.35,2.846 3.5,0 0,0 m 0,15.599 c -5.101,0 -9.251,-4.152 -9.251,-9.253 0,-5.102 4.15,-9.251 9.251,-9.251 5.101,0 9.251,4.149 9.251,9.251 0,5.101 -4.15,9.253 -9.251,9.253"
             style="fill:#ffffff;fill-opacity:1;fill-rule:nonzero;stroke:none"
             id="path276" />
        </g>
        <g
           id="g278"
           transform="translate(195.839,136.241)">
          <path
             d="M 0,0 H -3.285 V -14.076 -16.83 H 0 9.715 v 2.754 H 0 Z"
             style="fill:#ffffff;fill-opacity:1;fill-rule:nonzero;stroke:none"
             id="path280" />
        </g>
        <g
           id="g282"
           transform="translate(260.5301,129.8085)">
          <path
             d="m 0,0 c 0,-4.353 -1.816,-7.606 -3.44,-7.606 -0.755,0 -1.597,0.773 -2.261,2.066 L -7.16,-2.683 -8.619,-5.54 c -0.664,-1.293 -1.506,-2.066 -2.26,-2.066 -1.437,0 -3.441,2.894 -3.441,7.606 v 5.785 h -3.285 V 0 c 0,-6.105 2.956,-10.886 6.726,-10.886 1.354,0 2.639,0.617 3.719,1.747 1.08,-1.13 2.365,-1.747 3.72,-1.747 3.769,0 6.725,4.781 6.725,10.886 V 5.785 H 0 Z"
             style="fill:#ffffff;fill-opacity:1;fill-rule:nonzero;stroke:none"
             id="path284" />
        </g>
        <g
           id="g286"
           transform="translate(227.9969,121.2188)">
          <path
             d="m 0,0 c -3.5,0 -6.35,2.846 -6.35,6.346 0,3.499 2.85,6.347 6.35,6.347 3.5,0 6.35,-2.848 6.35,-6.347 C 6.35,2.846 3.5,0 0,0 m 0,15.599 c -5.101,0 -9.251,-4.152 -9.251,-9.253 0,-5.102 4.15,-9.251 9.251,-9.251 5.101,0 9.251,4.149 9.251,9.251 0,5.101 -4.15,9.253 -9.251,9.253"
             style="fill:#ffffff;fill-opacity:1;fill-rule:nonzero;stroke:none"
             id="path288" />
        </g>
        <g
           id="g290"
           transform="translate(274.5298,122.1654)">
          <path
             d="M 0,0 V 14.076 H -3.285 V 0 -2.599 -2.755 h 13 V 0 Z"
             style="fill:#ffffff;fill-opacity:1;fill-rule:nonzero;stroke:none"
             id="path292" />
        </g>
        <g
           id="g294"
           transform="translate(206.8862,285.9586)">
          <path
             d="M 0,0 -54.442,33.065 -58.065,27.096 -3.627,-5.968 Z"
             style="fill:#ffffff;fill-opacity:1;fill-rule:nonzero;stroke:none"
             id="path296" />
        </g>
        <g
           id="g298"
           transform="translate(201.5785,275.6981)">
          <path
             d="m 0,0 -56.18,30.436 -3.309,-6.15 56.18,-30.436 z"
             style="fill:#ffffff;fill-opacity:1;fill-rule:nonzero;stroke:none"
             id="path300" />
        </g>
        <g
           id="g302"
           transform="translate(272.0607,312.9549)">
          <path
             d="m 0,0 -3.627,5.968 -54.438,-33.062 3.627,-5.968 z"
             style="fill:#ffffff;fill-opacity:1;fill-rule:nonzero;stroke:none"
             id="path304" />
        </g>
        <g
           id="g306"
           transform="translate(222.7265,269.5479)">
          <path
             d="M 0,0 56.138,30.338 52.829,36.489 -3.309,6.15 Z"
             style="fill:#ffffff;fill-opacity:1;fill-rule:nonzero;stroke:none"
             id="path308" />
        </g>
        <g
           id="g310"
           transform="translate(263.4378,215.6681)">
          <path
             d="m 0,0 c -0.376,-2.768 -4.127,-14.794 -11.187,-24.826 -4.232,-6.009 -10.341,-10.7 -18.687,-14.341 -4.095,-1.786 -6.741,-5.85 -6.741,-10.357 v -3.811 h -31.244 v 3.804 c 0,4.512 -2.65,8.58 -6.754,10.364 -5.641,2.45 -11.751,5.598 -18.962,14.605 -6.973,8.709 -10.832,24.303 -10.871,24.46 0,0 -6.206,3.392 -8.882,6.777 l 2.108,-8.473 h 0.001 c 0.24,-0.976 4.316,-17.289 12.194,-27.128 8.207,-10.252 15.468,-13.968 21.627,-16.646 1.555,-0.675 2.557,-2.229 2.557,-3.959 v -4.318 c 0,-3.566 2.903,-6.469 6.469,-6.469 h 32.271 c 3.568,0 6.468,2.903 6.468,6.469 v 4.325 c 0,1.727 1,3.282 2.55,3.957 9.551,4.168 16.619,9.639 21.606,16.723 C 2.291,-17.8 6.55,-2.498 6.732,-1.852 L 8.84,6.621 C 6.163,3.236 0,0 0,0"
             style="fill:#ffffff;fill-opacity:1;fill-rule:nonzero;stroke:none"
             id="path312" />
        </g>
        <g
           id="g314"
           transform="translate(179.4639,221.8453)">
          <path
             d="m 0,0 c -16.482,2.021 -29.272,16.431 -29.565,33.034 -0.139,7.932 3.125,16.143 8.017,22.352 1.213,1.465 2.969,3.365 4.08,4.511 l -6.531,3.462 c -0.448,-0.464 -3.016,-3.098 -4.558,-5.439 l 0.013,-0.008 c -5.155,-6.994 -8.008,-15.528 -8.008,-24.252 0,-22.557 18.35,-40.91 40.908,-40.91 3.038,0 6.045,0.36 8.971,1.035 2.103,0.484 4.309,0.432 6.265,-0.479 3.109,-1.45 7.401,-4.282 10.382,-9.594 0.783,-1.395 2.755,-1.496 3.544,-0.104 1.722,3.039 4.902,7.14 10.268,9.631 1.999,0.929 4.272,1.021 6.421,0.53 2.907,-0.665 5.891,-1.019 8.907,-1.019 22.56,0 40.91,18.353 40.91,40.91 0,9.013 -3.034,17.832 -8.521,24.953 l 0.035,0.023 c -1.537,2.341 -4.262,5.143 -4.707,5.605 l -6.38,-3.625 c 1.276,-1.317 3.352,-3.583 4.527,-5.087 4.956,-6.228 8.199,-14.502 8.059,-22.495 C 92.744,16.428 79.949,2.017 63.464,-0.001 52.337,-1.362 41.79,2.53 34.291,10.592 l -2.555,2.75 -2.554,-2.75 C 21.681,2.529 11.128,-1.364 0,0"
             style="fill:#ffffff;fill-opacity:1;fill-rule:nonzero;stroke:none"
             id="path316" />
        </g>
        <g
           id="g318"
           transform="translate(186.8762,252.6789)">
          <path
             d="m 0,0 c 0,3.392 2.75,6.142 6.142,6.142 3.392,0 6.142,-2.75 6.142,-6.142 0,-3.392 -2.75,-6.142 -6.142,-6.142 C 2.75,-6.142 0,-3.392 0,0 m 15.987,-1.092 c 0,7.682 -6.25,13.933 -13.932,13.933 -7.684,0 -13.934,-6.251 -13.934,-13.933 0,-7.684 6.25,-13.934 13.934,-13.934 7.682,0 13.932,6.25 13.932,13.934"
             style="fill:#ffffff;fill-opacity:1;fill-rule:nonzero;stroke:none"
             id="path320" />
        </g>
        <g
           id="g322"
           transform="translate(228.2165,246.5372)">
          <path
             d="m 0,0 c -3.244,0 -5.873,2.629 -5.873,5.873 0,3.243 2.629,5.873 5.873,5.873 3.243,0 5.873,-2.63 5.873,-5.873 C 5.873,2.629 3.243,0 0,0 m -9.536,5.05 c 0,-7.684 6.25,-13.934 13.932,-13.934 7.684,0 13.934,6.25 13.934,13.934 0,7.682 -6.25,13.932 -13.934,13.932 -7.682,0 -13.932,-6.25 -13.932,-13.932"
             style="fill:#ffffff;fill-opacity:1;fill-rule:nonzero;stroke:none"
             id="path324" />
        </g>
      </g>
    </g>
    <path
       d="M 0,0 H 425.197 V 425.197 H 0 Z"
       style="fill:#44aa53;fill-opacity:1;fill-rule:nonzero;stroke:none"
       id="path326" />
    <g
       id="g328">
      <g
         id="g330"
         clip-path="url(#clipPath334)">
        <g
           id="g336"
           transform="translate(174.5125,106.6794)">
          <path
             d="m 0,0 c -0.023,-0.088 -0.066,-0.168 -0.128,-0.236 -0.062,-0.07 -0.148,-0.127 -0.258,-0.171 -0.11,-0.044 -0.251,-0.066 -0.424,-0.066 h -0.923 v 1.408 h 0.915 c 0.165,0 0.303,-0.016 0.411,-0.048 0.109,-0.031 0.195,-0.073 0.262,-0.13 C -0.079,0.7 -0.033,0.63 -0.006,0.547 0.021,0.464 0.035,0.37 0.035,0.267 0.035,0.177 0.023,0.088 0,0 m -1.733,3.207 h 0.767 c 0.148,0 0.275,-0.013 0.382,-0.035 C -0.477,3.148 -0.388,3.109 -0.318,3.056 -0.249,3.001 -0.197,2.929 -0.163,2.84 -0.13,2.75 -0.112,2.638 -0.112,2.504 -0.112,2.367 -0.133,2.253 -0.177,2.163 -0.219,2.073 -0.281,2.001 -0.363,1.949 -0.444,1.898 -0.543,1.863 -0.659,1.841 -0.776,1.821 -0.906,1.81 -1.051,1.81 H -1.733 Z M 0.237,1.462 C 0.407,1.524 0.553,1.596 0.675,1.681 0.796,1.765 0.896,1.857 0.973,1.962 1.05,2.065 1.107,2.176 1.143,2.294 1.18,2.412 1.197,2.533 1.197,2.66 1.197,2.892 1.159,3.102 1.08,3.291 1.001,3.479 0.874,3.641 0.701,3.772 0.528,3.905 0.305,4.006 0.031,4.079 -0.243,4.151 -0.575,4.186 -0.966,4.186 h -2.078 v -5.648 h 2.257 c 0.339,0 0.64,0.043 0.903,0.131 0.264,0.087 0.485,0.206 0.665,0.359 0.18,0.155 0.316,0.335 0.409,0.541 C 1.283,-0.223 1.33,0 1.33,0.241 1.33,0.558 1.241,0.819 1.062,1.022 0.884,1.224 0.608,1.371 0.237,1.462"
             style="fill:#ffffff;fill-opacity:1;fill-rule:nonzero;stroke:none"
             id="path338" />
        </g>
        <g
           id="g340"
           transform="translate(183.0063,107.2868)">
          <path
             d="m 0,0 c -0.073,-0.225 -0.177,-0.414 -0.312,-0.569 -0.135,-0.154 -0.302,-0.272 -0.498,-0.355 -0.197,-0.081 -0.421,-0.122 -0.671,-0.122 -0.253,0 -0.479,0.041 -0.677,0.122 -0.197,0.083 -0.364,0.201 -0.499,0.355 -0.137,0.155 -0.241,0.344 -0.312,0.569 -0.073,0.223 -0.109,0.475 -0.109,0.757 0,0.279 0.036,0.53 0.109,0.754 0.071,0.223 0.175,0.413 0.312,0.567 0.135,0.157 0.302,0.275 0.499,0.357 0.198,0.083 0.424,0.126 0.677,0.126 0.25,0 0.474,-0.043 0.671,-0.126 0.196,-0.082 0.363,-0.2 0.498,-0.357 C -0.177,1.924 -0.073,1.734 0,1.511 0.073,1.287 0.109,1.036 0.109,0.757 0.109,0.475 0.073,0.223 0,0 M 0.643,2.807 C 0.387,3.067 0.079,3.269 -0.281,3.419 -0.642,3.568 -1.042,3.641 -1.481,3.641 -1.92,3.641 -2.321,3.568 -2.683,3.42 -3.045,3.273 -3.354,3.071 -3.611,2.811 -3.869,2.553 -4.067,2.248 -4.208,1.896 -4.349,1.546 -4.42,1.165 -4.42,0.757 c 0,-0.409 0.071,-0.788 0.212,-1.14 0.141,-0.352 0.339,-0.657 0.597,-0.917 0.257,-0.259 0.566,-0.464 0.928,-0.611 0.362,-0.147 0.763,-0.221 1.202,-0.221 0.439,0 0.839,0.074 1.2,0.221 0.36,0.147 0.668,0.352 0.924,0.611 0.256,0.26 0.455,0.565 0.596,0.917 C 1.38,-0.031 1.45,0.348 1.45,0.757 1.45,1.163 1.38,1.541 1.239,1.892 1.098,2.244 0.899,2.55 0.643,2.807"
             style="fill:#ffffff;fill-opacity:1;fill-rule:nonzero;stroke:none"
             id="path342" />
        </g>
        <g
           id="g344"
           transform="translate(190.4545,106.6794)">
          <path
             d="m 0,0 c -0.023,-0.088 -0.066,-0.168 -0.128,-0.236 -0.062,-0.07 -0.148,-0.127 -0.258,-0.171 -0.11,-0.044 -0.251,-0.066 -0.424,-0.066 h -0.923 v 1.408 h 0.915 c 0.165,0 0.303,-0.016 0.411,-0.048 0.109,-0.031 0.195,-0.073 0.262,-0.13 C -0.079,0.7 -0.033,0.63 -0.006,0.547 0.021,0.464 0.035,0.37 0.035,0.267 0.035,0.177 0.023,0.088 0,0 m -1.733,3.207 h 0.767 c 0.148,0 0.275,-0.013 0.382,-0.035 C -0.477,3.148 -0.387,3.109 -0.318,3.056 -0.249,3.001 -0.197,2.929 -0.163,2.84 -0.13,2.75 -0.112,2.638 -0.112,2.504 -0.112,2.367 -0.133,2.253 -0.177,2.163 -0.219,2.073 -0.281,2.001 -0.363,1.949 -0.444,1.898 -0.543,1.863 -0.659,1.841 -0.776,1.821 -0.906,1.81 -1.051,1.81 H -1.733 Z M 0.237,1.462 C 0.407,1.524 0.553,1.596 0.675,1.681 0.796,1.765 0.896,1.857 0.973,1.962 1.05,2.065 1.107,2.176 1.143,2.294 1.18,2.412 1.197,2.533 1.197,2.66 1.197,2.892 1.159,3.102 1.08,3.291 1.001,3.479 0.874,3.641 0.701,3.772 0.528,3.905 0.305,4.006 0.031,4.079 -0.243,4.151 -0.575,4.186 -0.966,4.186 h -2.078 v -5.648 h 2.257 c 0.339,0 0.64,0.043 0.903,0.131 0.264,0.087 0.485,0.206 0.665,0.359 0.18,0.155 0.316,0.335 0.409,0.541 C 1.283,-0.223 1.33,0 1.33,0.241 1.33,0.558 1.241,0.819 1.062,1.022 0.884,1.224 0.608,1.371 0.237,1.462"
             style="fill:#ffffff;fill-opacity:1;fill-rule:nonzero;stroke:none"
             id="path346" />
        </g>
        <g
           id="g348"
           transform="translate(196.4521,107.377)">
          <path
             d="M 0,0 0.519,1.539 C 0.558,1.637 0.599,1.754 0.643,1.889 0.687,2.023 0.73,2.169 0.771,2.327 0.815,2.17 0.86,2.027 0.905,1.894 0.95,1.762 0.989,1.646 1.023,1.546 L 1.543,0 Z m 0.1,3.488 -2.187,-5.647 h 1.024 c 0.109,0 0.201,0.029 0.275,0.086 0.076,0.059 0.126,0.124 0.152,0.197 l 0.333,0.985 H 1.845 L 2.179,-1.876 C 2.207,-1.959 2.258,-2.027 2.331,-2.08 2.405,-2.134 2.499,-2.159 2.612,-2.159 H 3.628 L 1.441,3.488 Z"
             style="fill:#ffffff;fill-opacity:1;fill-rule:nonzero;stroke:none"
             id="path350" />
        </g>
        <g
           id="g352"
           transform="translate(211.6651,110.8655)">
          <path
             d="M 0,0 H -1.256 C -1.368,0 -1.455,-0.053 -1.52,-0.162 l -0.985,-1.69 C -2.526,-1.885 -2.544,-1.918 -2.561,-1.949 -2.578,-1.981 -2.593,-2.012 -2.606,-2.047 L -3.73,-0.142 C -3.761,-0.09 -3.797,-0.053 -3.836,-0.031 -3.877,-0.011 -3.939,0 -4.024,0 h -1.311 l 1.749,-2.745 -1.819,-2.903 h 1.225 c 0.078,0 0.143,0.022 0.194,0.065 0.052,0.042 0.093,0.09 0.125,0.145 l 1.054,1.83 c 0.025,0.04 0.048,0.09 0.07,0.147 l 1.132,-1.977 c 0.031,-0.057 0.072,-0.107 0.126,-0.147 0.052,-0.043 0.121,-0.063 0.207,-0.063 h 1.311 l -1.811,2.962 z"
             style="fill:#ffffff;fill-opacity:1;fill-rule:nonzero;stroke:none"
             id="path354" />
        </g>
        <g
           id="g356"
           transform="translate(219.8193,109.3597)">
          <path
             d="M 0,0 C 0.142,0.156 0.31,0.278 0.506,0.361 0.703,0.445 0.92,0.488 1.158,0.488 1.295,0.488 1.414,0.477 1.516,0.457 1.618,0.434 1.707,0.411 1.784,0.381 1.86,0.352 1.926,0.318 1.982,0.283 2.037,0.249 2.088,0.215 2.135,0.186 2.181,0.156 2.225,0.133 2.266,0.11 2.308,0.09 2.352,0.079 2.399,0.079 c 0.069,0 0.123,0.017 0.163,0.046 0.038,0.03 0.071,0.063 0.1,0.098 L 3.104,0.817 C 2.998,0.928 2.876,1.029 2.739,1.121 2.602,1.213 2.453,1.292 2.29,1.357 2.127,1.423 1.952,1.475 1.764,1.513 1.577,1.55 1.377,1.568 1.165,1.568 0.729,1.568 0.33,1.498 -0.032,1.355 -0.394,1.213 -0.705,1.014 -0.965,0.758 -1.225,0.503 -1.427,0.199 -1.571,-0.155 c -0.146,-0.353 -0.217,-0.74 -0.217,-1.161 0,-0.413 0.062,-0.795 0.189,-1.149 0.127,-0.353 0.309,-0.657 0.545,-0.915 0.237,-0.258 0.525,-0.458 0.864,-0.606 0.34,-0.145 0.725,-0.219 1.154,-0.219 0.467,0 0.873,0.076 1.216,0.229 0.342,0.151 0.626,0.373 0.854,0.672 L 2.515,-2.758 C 2.486,-2.73 2.457,-2.71 2.425,-2.699 2.394,-2.686 2.364,-2.68 2.332,-2.68 2.294,-2.68 2.256,-2.69 2.22,-2.706 2.184,-2.723 2.15,-2.743 2.119,-2.769 2.042,-2.837 1.965,-2.894 1.889,-2.938 1.812,-2.984 1.732,-3.021 1.649,-3.049 1.564,-3.078 1.473,-3.096 1.375,-3.109 1.277,-3.12 1.168,-3.126 1.049,-3.126 c -0.207,0 -0.4,0.041 -0.581,0.12 -0.182,0.081 -0.34,0.197 -0.475,0.351 -0.136,0.153 -0.243,0.343 -0.323,0.567 -0.078,0.225 -0.117,0.483 -0.117,0.772 0,0.278 0.039,0.526 0.117,0.749 C -0.25,-0.346 -0.141,-0.156 0,0"
             style="fill:#ffffff;fill-opacity:1;fill-rule:nonzero;stroke:none"
             id="path358" />
        </g>
        <g
           id="g360"
           transform="translate(229.39,108.5055)">
          <path
             d="m 0,0 h -2.295 v 2.36 h -1.319 v -5.648 h 1.319 V -0.9 H 0 V -3.288 H 1.318 V 2.36 H 0 Z"
             style="fill:#ffffff;fill-opacity:1;fill-rule:nonzero;stroke:none"
             id="path362" />
        </g>
        <path
           d="m 234.082,105.218 h 1.318 v 5.648 h -1.318 z"
           style="fill:#ffffff;fill-opacity:1;fill-rule:nonzero;stroke:none"
           id="path364" />
        <g
           id="g366"
           transform="translate(240.2346,109.3597)">
          <path
             d="M 0,0 C 0.142,0.156 0.31,0.278 0.506,0.361 0.703,0.445 0.92,0.488 1.158,0.488 1.295,0.488 1.414,0.477 1.516,0.457 1.618,0.434 1.707,0.411 1.784,0.381 1.86,0.352 1.926,0.318 1.982,0.283 2.037,0.249 2.088,0.215 2.134,0.186 2.181,0.156 2.225,0.133 2.266,0.11 2.308,0.09 2.352,0.079 2.399,0.079 c 0.069,0 0.123,0.017 0.163,0.046 0.038,0.03 0.071,0.063 0.1,0.098 L 3.104,0.817 C 2.998,0.928 2.876,1.029 2.739,1.121 2.602,1.213 2.453,1.292 2.29,1.357 2.127,1.423 1.952,1.475 1.764,1.513 1.577,1.55 1.377,1.568 1.165,1.568 0.729,1.568 0.33,1.498 -0.032,1.355 -0.394,1.213 -0.705,1.014 -0.965,0.758 -1.225,0.503 -1.427,0.199 -1.571,-0.155 c -0.146,-0.353 -0.217,-0.74 -0.217,-1.161 0,-0.413 0.062,-0.795 0.189,-1.149 0.127,-0.353 0.309,-0.657 0.545,-0.915 0.237,-0.258 0.525,-0.458 0.864,-0.606 0.34,-0.145 0.725,-0.219 1.154,-0.219 0.467,0 0.873,0.076 1.216,0.229 0.342,0.151 0.626,0.373 0.854,0.672 L 2.515,-2.758 C 2.486,-2.73 2.457,-2.71 2.425,-2.699 2.394,-2.686 2.364,-2.68 2.332,-2.68 2.294,-2.68 2.256,-2.69 2.22,-2.706 2.184,-2.723 2.15,-2.743 2.119,-2.769 2.042,-2.837 1.965,-2.894 1.889,-2.938 1.812,-2.984 1.732,-3.021 1.648,-3.049 1.564,-3.078 1.473,-3.096 1.375,-3.109 1.277,-3.12 1.168,-3.126 1.049,-3.126 c -0.207,0 -0.4,0.041 -0.581,0.12 -0.182,0.081 -0.34,0.197 -0.475,0.351 -0.136,0.153 -0.243,0.343 -0.323,0.567 -0.078,0.225 -0.117,0.483 -0.117,0.772 0,0.278 0.039,0.526 0.117,0.749 C -0.25,-0.346 -0.141,-0.156 0,0"
             style="fill:#ffffff;fill-opacity:1;fill-rule:nonzero;stroke:none"
             id="path368" />
        </g>
        <g
           id="g370"
           transform="translate(249.3185,108.0932)">
          <path
             d="m 0,0 c -0.081,0.063 -0.171,0.112 -0.269,0.149 0.067,0.035 0.133,0.081 0.198,0.134 0.065,0.056 0.126,0.124 0.186,0.207 L 1.789,2.772 H 0.65 C 0.521,2.772 0.411,2.756 0.322,2.719 0.233,2.682 0.154,2.614 0.084,2.513 L -1.188,0.668 C -1.273,0.547 -1.413,0.486 -1.606,0.486 h -0.21 v 2.286 h -1.311 v -5.647 h 1.311 v 2.404 h 0.318 c 0.121,0 0.218,-0.015 0.289,-0.044 0.07,-0.032 0.129,-0.081 0.176,-0.155 l 1.28,-1.964 C 0.272,-2.673 0.299,-2.708 0.328,-2.737 0.356,-2.767 0.39,-2.793 0.429,-2.813 0.468,-2.835 0.514,-2.85 0.566,-2.861 0.619,-2.87 0.683,-2.875 0.758,-2.875 H 1.929 L 0.224,-0.254 C 0.156,-0.149 0.082,-0.064 0,0"
             style="fill:#ffffff;fill-opacity:1;fill-rule:nonzero;stroke:none"
             id="path372" />
        </g>
        <g
           id="g374"
           transform="translate(181.8393,129.8085)">
          <path
             d="m 0,0 c 0,-4.353 -1.816,-7.606 -3.44,-7.606 -0.755,0 -1.597,0.773 -2.261,2.066 L -7.16,-2.683 -8.619,-5.54 c -0.664,-1.293 -1.506,-2.066 -2.26,-2.066 -1.625,0 -3.441,3.253 -3.441,7.606 v 5.785 h -3.285 V 0 c 0,-6.105 2.956,-10.886 6.726,-10.886 1.354,0 2.639,0.617 3.719,1.747 1.08,-1.13 2.365,-1.747 3.72,-1.747 3.769,0 6.725,4.781 6.725,10.886 V 5.785 H 0 Z"
             style="fill:#ffffff;fill-opacity:1;fill-rule:nonzero;stroke:none"
             id="path376" />
        </g>
        <g
           id="g378"
           transform="translate(149.3062,121.2188)">
          <path
             d="m 0,0 c -3.5,0 -6.35,2.846 -6.35,6.346 0,3.499 2.85,6.347 6.35,6.347 3.5,0 6.35,-2.848 6.35,-6.347 C 6.35,2.846 3.5,0 0,0 m 0,15.599 c -5.101,0 -9.251,-4.152 -9.251,-9.253 0,-5.102 4.15,-9.251 9.251,-9.251 5.101,0 9.251,4.149 9.251,9.251 0,5.101 -4.15,9.253 -9.251,9.253"
             style="fill:#ffffff;fill-opacity:1;fill-rule:nonzero;stroke:none"
             id="path380" />
        </g>
        <g
           id="g382"
           transform="translate(195.839,136.241)">
          <path
             d="M 0,0 H -3.285 V -14.076 -16.83 H 0 9.715 v 2.754 H 0 Z"
             style="fill:#ffffff;fill-opacity:1;fill-rule:nonzero;stroke:none"
             id="path384" />
        </g>
        <g
           id="g386"
           transform="translate(260.5301,129.8085)">
          <path
             d="m 0,0 c 0,-4.353 -1.816,-7.606 -3.44,-7.606 -0.755,0 -1.597,0.773 -2.261,2.066 L -7.16,-2.683 -8.619,-5.54 c -0.664,-1.293 -1.506,-2.066 -2.26,-2.066 -1.437,0 -3.441,2.894 -3.441,7.606 v 5.785 h -3.285 V 0 c 0,-6.105 2.956,-10.886 6.726,-10.886 1.354,0 2.639,0.617 3.719,1.747 1.08,-1.13 2.365,-1.747 3.72,-1.747 3.769,0 6.725,4.781 6.725,10.886 V 5.785 H 0 Z"
             style="fill:#ffffff;fill-opacity:1;fill-rule:nonzero;stroke:none"
             id="path388" />
        </g>
        <g
           id="g390"
           transform="translate(227.9969,121.2188)">
          <path
             d="m 0,0 c -3.5,0 -6.35,2.846 -6.35,6.346 0,3.499 2.85,6.347 6.35,6.347 3.5,0 6.35,-2.848 6.35,-6.347 C 6.35,2.846 3.5,0 0,0 m 0,15.599 c -5.101,0 -9.251,-4.152 -9.251,-9.253 0,-5.102 4.15,-9.251 9.251,-9.251 5.101,0 9.251,4.149 9.251,9.251 0,5.101 -4.15,9.253 -9.251,9.253"
             style="fill:#ffffff;fill-opacity:1;fill-rule:nonzero;stroke:none"
             id="path392" />
        </g>
        <g
           id="g394"
           transform="translate(274.5298,122.1654)">
          <path
             d="M 0,0 V 14.076 H -3.285 V 0 -2.599 -2.755 h 13 V 0 Z"
             style="fill:#ffffff;fill-opacity:1;fill-rule:nonzero;stroke:none"
             id="path396" />
        </g>
        <g
           id="g398"
           transform="translate(206.8862,285.9586)">
          <path
             d="M 0,0 -54.442,33.065 -58.065,27.096 -3.627,-5.968 Z"
             style="fill:#ffffff;fill-opacity:1;fill-rule:nonzero;stroke:none"
             id="path400" />
        </g>
        <g
           id="g402"
           transform="translate(201.5785,275.6981)">
          <path
             d="m 0,0 -56.18,30.436 -3.309,-6.15 56.18,-30.436 z"
             style="fill:#ffffff;fill-opacity:1;fill-rule:nonzero;stroke:none"
             id="path404" />
        </g>
        <g
           id="g406"
           transform="translate(272.0607,312.9549)">
          <path
             d="m 0,0 -3.627,5.968 -54.438,-33.062 3.627,-5.968 z"
             style="fill:#ffffff;fill-opacity:1;fill-rule:nonzero;stroke:none"
             id="path408" />
        </g>
        <g
           id="g410"
           transform="translate(222.7265,269.5479)">
          <path
             d="M 0,0 56.138,30.338 52.829,36.489 -3.309,6.15 Z"
             style="fill:#ffffff;fill-opacity:1;fill-rule:nonzero;stroke:none"
             id="path412" />
        </g>
        <g
           id="g414"
           transform="translate(263.4378,215.6681)">
          <path
             d="m 0,0 c -0.376,-2.768 -4.127,-14.794 -11.187,-24.826 -4.232,-6.009 -10.341,-10.7 -18.687,-14.341 -4.095,-1.786 -6.741,-5.85 -6.741,-10.357 v -3.811 h -31.244 v 3.804 c 0,4.512 -2.65,8.58 -6.754,10.364 -5.641,2.45 -11.751,5.598 -18.962,14.605 -6.973,8.709 -10.832,24.303 -10.871,24.46 0,0 -6.206,3.392 -8.882,6.777 l 2.108,-8.473 h 0.001 c 0.24,-0.976 4.316,-17.289 12.194,-27.128 8.207,-10.252 15.468,-13.968 21.627,-16.646 1.555,-0.675 2.557,-2.229 2.557,-3.959 v -4.318 c 0,-3.566 2.903,-6.469 6.469,-6.469 h 32.271 c 3.568,0 6.468,2.903 6.468,6.469 v 4.325 c 0,1.727 1,3.282 2.55,3.957 9.551,4.168 16.619,9.639 21.606,16.723 C 2.291,-17.8 6.55,-2.498 6.732,-1.852 L 8.84,6.621 C 6.163,3.236 0,0 0,0"
             style="fill:#ffffff;fill-opacity:1;fill-rule:nonzero;stroke:none"
             id="path416" />
        </g>
        <g
           id="g418"
           transform="translate(179.4639,221.8453)">
          <path
             d="m 0,0 c -16.482,2.021 -29.272,16.431 -29.565,33.034 -0.139,7.932 3.125,16.143 8.017,22.352 1.213,1.465 2.969,3.365 4.08,4.511 l -6.531,3.462 c -0.448,-0.464 -3.016,-3.098 -4.558,-5.439 l 0.013,-0.008 c -5.155,-6.994 -8.008,-15.528 -8.008,-24.252 0,-22.557 18.35,-40.91 40.908,-40.91 3.038,0 6.045,0.36 8.971,1.035 2.103,0.484 4.309,0.432 6.265,-0.479 3.109,-1.45 7.401,-4.282 10.382,-9.594 0.783,-1.395 2.755,-1.496 3.544,-0.104 1.722,3.039 4.902,7.14 10.268,9.631 1.999,0.929 4.272,1.021 6.421,0.53 2.907,-0.665 5.891,-1.019 8.907,-1.019 22.56,0 40.91,18.353 40.91,40.91 0,9.013 -3.034,17.832 -8.521,24.953 l 0.035,0.023 c -1.537,2.341 -4.262,5.143 -4.707,5.605 l -6.38,-3.625 c 1.276,-1.317 3.352,-3.583 4.527,-5.087 4.956,-6.228 8.199,-14.502 8.059,-22.495 C 92.744,16.428 79.949,2.017 63.464,-0.001 52.337,-1.362 41.79,2.53 34.291,10.592 l -2.555,2.75 -2.554,-2.75 C 21.681,2.529 11.128,-1.364 0,0"
             style="fill:#ffffff;fill-opacity:1;fill-rule:nonzero;stroke:none"
             id="path420" />
        </g>
        <g
           id="g422"
           transform="translate(186.8762,252.6789)">
          <path
             d="m 0,0 c 0,3.392 2.75,6.142 6.142,6.142 3.392,0 6.142,-2.75 6.142,-6.142 0,-3.392 -2.75,-6.142 -6.142,-6.142 C 2.75,-6.142 0,-3.392 0,0 m 15.987,-1.092 c 0,7.682 -6.25,13.933 -13.932,13.933 -7.684,0 -13.934,-6.251 -13.934,-13.933 0,-7.684 6.25,-13.934 13.934,-13.934 7.682,0 13.932,6.25 13.932,13.934"
             style="fill:#ffffff;fill-opacity:1;fill-rule:nonzero;stroke:none"
             id="path424" />
        </g>
        <g
           id="g426"
           transform="translate(228.2165,246.5372)">
          <path
             d="m 0,0 c -3.244,0 -5.873,2.629 -5.873,5.873 0,3.243 2.629,5.873 5.873,5.873 3.243,0 5.873,-2.63 5.873,-5.873 C 5.873,2.629 3.243,0 0,0 m -9.536,5.05 c 0,-7.684 6.25,-13.934 13.932,-13.934 7.684,0 13.934,6.25 13.934,13.934 0,7.682 -6.25,13.932 -13.934,13.932 -7.682,0 -13.932,-6.25 -13.932,-13.932"
             style="fill:#ffffff;fill-opacity:1;fill-rule:nonzero;stroke:none"
             id="path428" />
        </g>
      </g>
    </g>
  </g>
</svg>
